<svg width="251" height="52" viewBox="0 0 251 52" fill="none" xmlns="http://www.w3.org/2000/svg">
<g id="12 1" clip-path="url(#clip0_372_9757)">
<g id="&#208;&#161;&#208;&#187;&#208;&#190;&#208;&#185; 2">
<g id="Layer 1">
<path id="Vector" d="M49.7295 1.35498L31.4621 18.2562L13.1851 1.35498L0 51.7175H5.9052L16.3603 11.7745L31.4621 25.7126L46.5446 11.7647L57.0287 51.7175L62.9242 51.7272L49.7295 1.35498Z" fill="#004F9F"/>
<path id="Vector_2" d="M31.4608 28.6853L17.8401 16.3262L8.97266 51.7173H14.8488L21.1122 26.6774L31.4608 36.1027L41.7901 26.7164L48.0535 51.7173H53.9393L45.0621 16.3164L31.4608 28.6853Z" fill="#004F9F"/>
<path id="Vector_3" d="M41.8795 37.1652L40.5532 30.9954L25.9645 43.7834L27.6973 35.7227L22.3439 30.8882L17.9102 51.7174H24.2607L30.8726 46.2494L36.9714 51.7272L44.8998 51.7174L35.0159 42.8282L41.8795 37.1652Z" fill="#004F9F"/>
<path id="Vector_4" d="M74.8037 3.08984H78.0467L80.0699 9.96145L82.1029 3.13858H85.3362L87.0206 14.4061H83.9132L83.0613 7.79762L81.1251 14.3378H79.0341L77.0883 7.79762L76.2267 14.3378H73.1289L74.8037 3.08984Z" fill="#004F9F"/>
<path id="Vector_5" d="M91.8799 3.08984H95.7522L99.8664 14.3573H96.4492L95.8006 12.4079H91.9283L91.2797 14.3573H87.7656L91.8799 3.08984ZM92.5188 9.91271H95.1616L93.8354 5.78L92.5188 9.91271Z" fill="#004F9F"/>
<path id="Vector_6" d="M101.047 3.08984H107.969V5.78975H104.28V14.3573H101.047V3.08984Z" fill="#004F9F"/>
<path id="Vector_7" d="M109.258 3.08984H112.491V7.14458H116.421V3.08984H119.655V14.3573H116.421V9.84448H112.491V14.3573H109.258V3.08984Z" fill="#004F9F"/>
<path id="Vector_8" d="M124.881 3.08984V9.84448L129.354 3.08984H132.519V14.3573H129.431V7.59294L124.959 14.3573H121.793V3.08984H124.881Z" fill="#004F9F"/>
<path id="Vector_9" d="M136.343 5.78975H133.797V3.08984H142.113V5.78975H139.576V14.3573H136.343V5.78975Z" fill="#004F9F"/>
<path id="Vector_10" d="M142.801 8.77228C142.801 5.76047 144.785 2.81689 149.006 2.81689C153.227 2.81689 155.211 5.74098 155.211 8.77228C155.211 11.8036 153.227 14.7277 149.006 14.7277C144.785 14.7277 142.801 11.6964 142.801 8.77228ZM151.872 8.77228C151.872 6.59871 150.507 5.5168 148.967 5.5168C147.428 5.5168 146.179 6.54998 146.179 8.77228C146.179 10.9946 147.554 12.018 149.084 12.018C150.613 12.018 151.872 10.8971 151.872 8.77228Z" fill="#004F9F"/>
<path id="Vector_11" d="M156.828 3.08984H163.759V5.78975H160.061V14.3573H156.828V3.08984Z" fill="#004F9F"/>
<path id="Vector_12" d="M164.473 8.77228C164.473 5.76047 166.409 2.81689 170.678 2.81689C174.947 2.81689 176.883 5.74098 176.883 8.77228C176.883 11.8036 174.899 14.7277 170.678 14.7277C166.457 14.7277 164.473 11.6964 164.473 8.77228ZM173.543 8.77228C173.543 6.59871 172.178 5.5168 170.639 5.5168C169.1 5.5168 167.735 6.59871 167.735 8.77228C167.735 10.9459 169.11 12.018 170.639 12.018C172.169 12.018 173.543 10.8971 173.543 8.77228Z" fill="#004F9F"/>
<path id="Vector_13" d="M178.473 3.08984H183.313C186.595 3.08984 187.524 5.31215 187.524 6.85217C187.524 8.39219 186.556 10.634 183.313 10.634H181.706V14.3573H178.473V3.08984ZM181.706 8.15826H182.674C184.107 8.15826 184.252 7.33952 184.252 6.85217C184.252 6.36482 184.058 5.56557 182.674 5.56557H181.706V8.15826Z" fill="#004F9F"/>
<path id="Vector_14" d="M197.68 13.8408C196.75 14.4329 195.663 14.7253 194.563 14.6791C193.781 14.7192 192.998 14.5942 192.266 14.3121C191.534 14.03 190.869 13.597 190.313 13.0409C189.757 12.4848 189.323 11.8178 189.038 11.0827C188.753 10.3476 188.623 9.56072 188.658 8.7724C188.623 7.98587 188.75 7.20051 189.031 6.4658C189.312 5.73109 189.741 5.06296 190.291 4.50349C190.842 3.94402 191.501 3.50534 192.228 3.21508C192.955 2.92483 193.733 2.78929 194.515 2.81701C195.634 2.80265 196.733 3.11404 197.68 3.71373V6.93997C197.349 6.52694 196.933 6.19169 196.459 5.95768C195.986 5.72367 195.468 5.59653 194.941 5.58515C194.531 5.585 194.125 5.67069 193.749 5.83676C193.373 6.00284 193.036 6.24569 192.758 6.54992C192.481 6.85416 192.269 7.21313 192.136 7.6041C192.004 7.99507 191.953 8.4095 191.988 8.82114C191.964 9.22114 192.022 9.62191 192.161 9.99756C192.3 10.3732 192.515 10.7154 192.794 11.002C193.072 11.2886 193.407 11.5132 193.777 11.6614C194.146 11.8095 194.543 11.878 194.941 11.8622C195.456 11.8512 195.963 11.7369 196.434 11.526C196.904 11.3151 197.328 11.0119 197.68 10.6341V13.8408Z" fill="#004F9F"/>
<path id="Vector_15" d="M199.539 3.08981H202.772V7.79759L206.257 3.07031H210.072L205.677 8.52861L210.188 14.3768H206.141L202.792 9.5033V14.3768H199.558L199.539 3.08981Z" fill="#004F9F"/>
<path id="Vector_16" d="M214.418 3.08984V9.84448L218.89 3.08984H222.056V14.3573H218.939V7.59294L214.466 14.3573H211.301V3.08984H214.418Z" fill="#004F9F"/>
<path id="Vector_17" d="M227.32 3.08978V9.84442L231.793 3.08978H234.958V14.3573H231.841V7.59288L227.369 14.3573H224.203V3.08978H227.32ZM233.042 0.67254C232.693 1.27323 232.183 1.76177 231.569 2.08107C230.955 2.40037 230.264 2.53725 229.576 2.47573C228.888 2.53606 228.197 2.39866 227.584 2.07948C226.97 1.76029 226.459 1.27242 226.11 0.67254L227.959 0C228.09 0.314994 228.317 0.579558 228.608 0.754951C228.899 0.930344 229.238 1.00735 229.576 0.974695C229.914 1.00893 230.253 0.932584 230.545 0.756996C230.836 0.581408 231.063 0.315938 231.193 0L233.042 0.67254Z" fill="#004F9F"/>
<path id="Vector_18" d="M74.8018 21.7554H78.0448L80.0681 28.627L82.101 21.8041H85.3343L87.0188 33.0716H83.9113L83.0594 26.5314L81.1233 33.0716H79.0322L77.0961 26.5314L76.2345 33.0716H73.1367L74.8018 21.7554Z" fill="#004F9F"/>
<path id="Vector_19" d="M88.4023 21.7554H95.3337V24.4553H91.6357V26.0343H94.9852V28.51H91.6357V30.3132H95.3337V33.0229H88.4023V21.7554Z" fill="#004F9F"/>
<path id="Vector_20" d="M98.9366 24.4553H96.3906V21.7554H104.706V24.4553H102.17V33.0229H98.9366V24.4553Z" fill="#004F9F"/>
<path id="Vector_21" d="M108.191 21.7554H112.121L116.225 33.0229H112.76L112.121 31.0735H108.191L107.552 33.0229H104.086L108.191 21.7554ZM108.839 28.5782H111.472L110.156 24.426L108.839 28.5782Z" fill="#004F9F"/>
<path id="Vector_22" d="M127.928 21.7554V33.0229H124.695V24.4553H122.391V28.8999C122.391 30.5276 122.226 33.1593 118.199 33.1593C117.743 33.1754 117.287 33.1295 116.844 33.0229V30.3132C117.073 30.3837 117.311 30.423 117.55 30.4302C118.973 30.4302 119.157 29.5627 119.157 27.9642V21.7554H127.928Z" fill="#004F9F"/>
<path id="Vector_23" d="M140.203 21.7554V33.0229H136.97V24.4553H134.656V28.8999C134.656 30.5276 134.492 33.1593 130.465 33.1593C130.009 33.1749 129.553 33.129 129.109 33.0229V30.3132C129.342 30.3838 129.583 30.4231 129.826 30.4302C131.239 30.4302 131.423 29.5627 131.423 27.9642V21.7554H140.203Z" fill="#004F9F"/>
<path id="Vector_24" d="M145.209 21.7554L147.464 26.4826L149.313 21.7554H152.827L147.629 33.0229H144.163L145.731 29.9136L141.395 21.7554H145.209Z" fill="#004F9F"/>
<path id="Vector_25" d="M153.922 21.7554H158.762C162.044 21.7554 162.973 23.9777 162.973 25.5177C162.973 27.0577 162.005 29.2995 158.762 29.2995H157.126V33.0229H153.922V21.7554ZM157.155 26.8238H158.123C159.556 26.8238 159.701 26.005 159.701 25.5177C159.701 25.0303 159.508 24.2311 158.123 24.2311H157.155V26.8238Z" fill="#004F9F"/>
<path id="Vector_26" d="M164.428 21.7554H171.349V24.4553H167.651V33.0229H164.418L164.428 21.7554Z" fill="#004F9F"/>
<path id="Vector_27" d="M175.762 21.7554V28.51L180.234 21.7554H183.4V33.0229H180.283V26.2585L175.81 33.0229H172.645V21.7554H175.762Z" fill="#004F9F"/>
<path id="Vector_28" d="M191.211 28.627C190.497 28.7413 189.775 28.7935 189.052 28.7829C185.18 28.7829 184.977 26.8335 184.977 25.0206V21.7554H188.21V24.5722C188.21 25.4397 188.21 26.2585 189.991 26.2585C190.253 26.2585 190.582 26.2097 191.211 26.1512V21.7554H194.444V33.0229H191.211V28.627Z" fill="#004F9F"/>
<path id="Vector_29" d="M196.586 21.7554H203.517V24.4553H199.819V26.0343H203.169V28.51H199.819V30.3132H203.517V33.0229H196.586V21.7554Z" fill="#004F9F"/>
<path id="Vector_30" d="M213.722 32.5061C212.791 33.097 211.704 33.3894 210.605 33.3444C209.818 33.3851 209.031 33.2589 208.295 32.9738C207.56 32.6888 206.892 32.2514 206.336 31.6899C205.779 31.1284 205.345 30.4554 205.064 29.7145C204.782 28.9736 204.658 28.1813 204.699 27.389C204.664 26.6029 204.791 25.8179 205.072 25.0837C205.353 24.3495 205.783 23.682 206.333 23.1233C206.883 22.5646 207.543 22.1268 208.27 21.8377C208.997 21.5485 209.775 21.4142 210.556 21.4433C211.675 21.429 212.774 21.7404 213.722 22.3401V25.6053C213.388 25.1955 212.971 24.8632 212.498 24.631C212.025 24.3988 211.508 24.2724 210.982 24.2602C210.572 24.2601 210.166 24.3458 209.79 24.5118C209.414 24.6779 209.077 24.9208 208.8 25.225C208.522 25.5292 208.31 25.8882 208.178 26.2792C208.045 26.6701 207.995 27.0846 208.029 27.4962C208.005 27.8962 208.064 28.297 208.202 28.6726C208.341 29.0483 208.557 29.3905 208.835 29.677C209.113 29.9636 209.448 30.1883 209.818 30.3364C210.188 30.4846 210.584 30.553 210.982 30.5373C211.497 30.5262 212.004 30.4119 212.475 30.2011C212.945 29.9902 213.369 29.687 213.722 29.3091V32.5061Z" fill="#004F9F"/>
<path id="Vector_31" d="M215.58 21.7554H218.784V26.4826L222.26 21.7554H226.054L221.688 27.2137L226.19 33.0618H222.153L218.804 28.1884V33.0618H215.57L215.58 21.7554Z" fill="#004F9F"/>
<path id="Vector_32" d="M230.457 21.7554V28.51L234.92 21.7554H238.144V33.0229H235.027V26.2585L230.554 33.0229H227.379V21.7554H230.457Z" fill="#004F9F"/>
<path id="Vector_33" d="M243.352 21.7553V28.51L247.824 21.7553H250.999V33.0228H247.882V26.2584L243.41 33.0228H240.234V21.7553H243.352ZM249.082 19.3381C248.69 19.8953 248.17 20.3497 247.567 20.6633C246.964 20.9768 246.295 21.1405 245.617 21.1405C244.938 21.1405 244.269 20.9768 243.666 20.6633C243.064 20.3497 242.544 19.8953 242.151 19.3381L244 18.6655C244.162 18.9533 244.397 19.1927 244.681 19.3593C244.965 19.5258 245.288 19.6136 245.617 19.6136C245.945 19.6136 246.268 19.5258 246.552 19.3593C246.836 19.1927 247.071 18.9533 247.233 18.6655L249.082 19.3381Z" fill="#004F9F"/>
<path id="Vector_34" d="M73.9297 40.4204H77.163V45.1477L80.6481 40.4204H84.4429L80.0479 45.869L84.559 51.7171H80.5125L77.163 46.8437V51.7171H73.9297V40.4204Z" fill="#004F9F"/>
<path id="Vector_35" d="M84.3359 46.0545C84.3359 43.0427 86.2721 40.0991 90.5412 40.0991C94.8104 40.0991 96.7465 43.0232 96.7465 46.0545C96.7465 49.0858 94.8104 52.0002 90.5412 52.0002C86.2721 52.0002 84.3359 49.0566 84.3359 46.0545ZM93.4164 46.0545C93.4164 43.8809 92.0417 42.799 90.5122 42.799C88.9826 42.799 87.608 43.8809 87.608 46.0545C87.5493 46.4692 87.5798 46.8917 87.6974 47.2935C87.8149 47.6952 88.0169 48.0669 88.2895 48.3833C88.5621 48.6996 88.8991 48.9534 89.2775 49.1272C89.656 49.3011 90.0671 49.3911 90.4832 49.3911C90.8992 49.3911 91.3103 49.3011 91.6888 49.1272C92.0672 48.9534 92.4042 48.6996 92.6768 48.3833C92.9494 48.0669 93.1514 47.6952 93.2689 47.2935C93.3865 46.8917 93.417 46.4692 93.3583 46.0545H93.4164Z" fill="#004F9F"/>
<path id="Vector_36" d="M99.1202 40.4204H102.354L104.387 47.292L106.419 40.4204H109.653L111.328 51.6586H108.23L107.378 45.1282L105.442 51.6586H103.37L101.434 45.1282L100.572 51.6586H97.4648L99.1202 40.4204Z" fill="#004F9F"/>
<path id="Vector_37" d="M112.723 40.4204H121.251V43.1203H115.956V44.8358H117.65C118.531 44.8358 122.19 44.8358 122.19 48.218C122.19 51.6002 118.492 51.6586 117.65 51.6586H112.723V40.4204ZM117.34 49.4266C118.308 49.4266 118.957 49.1439 118.957 48.2375C118.957 47.331 118.366 47.0678 117.34 47.0678H115.956V49.4266H117.34Z" fill="#004F9F"/>
<path id="Vector_38" d="M126.818 40.4204V47.175L131.291 40.4204H134.456V51.6586H131.339V44.9235L126.877 51.6586H123.711V40.4204H126.818Z" fill="#004F9F"/>
<path id="Vector_39" d="M136.613 40.4204H139.847V44.4751H143.777V40.4204H147.01V51.6586H143.777V47.175H139.847V51.6586H136.613V40.4204Z" fill="#004F9F"/>
<path id="Vector_40" d="M152.247 40.4204H156.177L160.282 51.6586H156.826L156.187 49.7093H152.257L151.618 51.6586H148.113L152.247 40.4204ZM152.896 47.2433H155.529L154.212 43.0911L152.896 47.2433Z" fill="#004F9F"/>
<path id="Vector_41" d="M162.208 43.1203H159.672V40.4204H167.988V43.1203H165.442V51.6586H162.208V43.1203Z" fill="#004F9F"/>
</g>
</g>
</g>
<defs>
<clipPath id="clip0_372_9757">
<rect width="251" height="52" fill="white"/>
</clipPath>
</defs>
</svg>
