<svg width="266" height="51" viewBox="0 0 266 51" fill="none" xmlns="http://www.w3.org/2000/svg">
<path d="M13.977 39.6666L6.25781 11.4878H11.3692L17.3151 33.1242L23.6782 11.4878H28.4245L34.7876 33.2272L40.7335 11.4878H45.7927L38.0735 39.6666H32.1798L25.9731 18.6484L19.8186 39.6666H13.977Z" fill="#BE11A5"/>
<path d="M49.3398 11.4878H54.1904V39.6666H49.3398V11.4878Z" fill="#BE11A5"/>
<path d="M64.465 35.2365H76.2003V39.6668H59.7188V11.5396H64.465V35.2365Z" fill="#BE11A5"/>
<path d="M91.1163 11.5397C94.8194 11.4366 98.4183 12.9306 100.974 15.6094C106.242 21.2245 106.242 29.9821 100.974 35.5972C98.4183 38.276 94.8194 39.77 91.1163 39.6669H79.7461V11.5397H91.1163ZM91.1163 35.2366C93.8284 35.2366 96.0712 34.3094 97.7402 32.5063C99.5135 30.6518 100.452 28.1275 100.348 25.6033C100.452 23.0275 99.5135 20.5548 97.7402 18.7003C96.019 16.8972 93.6198 15.8669 91.1163 15.97H84.4924V35.2366H91.1163Z" fill="#BE11A5"/>
<path d="M130.39 31.6303C130.442 33.7939 129.504 35.9061 127.887 37.3485C126.218 38.8939 124.027 39.7182 121.732 39.6667H109.371V11.5394H120.846C123.036 11.4879 125.175 12.3121 126.844 13.7545C128.461 15.1455 129.347 17.2061 129.295 19.3182C129.399 21.5848 128.252 23.7485 126.374 25.0364C128.878 26.2727 130.442 28.8485 130.39 31.6303ZM114.117 15.8667V23.2848H120.846C122.932 23.2848 124.601 21.6364 124.601 19.5758C124.601 17.5151 122.932 15.8667 120.846 15.8667H114.117ZM121.732 35.2879C123.923 35.1848 125.644 33.3818 125.54 31.2182C125.488 29.1576 123.766 27.5091 121.732 27.4576H114.117V35.3394L121.732 35.2879Z" fill="#BE11A5"/>
<path d="M139.676 35.2365H152.454V39.6668H134.93V11.5396H152.246V15.9699H139.676V23.285H151.255V27.6638H139.676V35.2365Z" fill="#BE11A5"/>
<path d="M173.161 39.6666L167.007 29.4151H161.426V39.6666H156.68V11.4878H168.259C170.71 11.4363 173.109 12.415 174.83 14.1666C176.604 15.815 177.595 18.1332 177.542 20.5544C177.49 24.1605 175.248 27.406 171.805 28.6938L178.377 39.6666H173.161ZM161.426 15.8666V25.2938H168.206C170.814 25.1908 172.848 22.9757 172.744 20.3484C172.64 17.9272 170.658 15.9696 168.206 15.8666H161.426Z" fill="#BE11A5"/>
<path d="M198.457 39.6666L192.354 29.4151H186.774V39.6666H182.027V11.4878H193.606C196.058 11.4363 198.457 12.415 200.178 14.1666C201.951 15.815 202.942 18.1332 202.89 20.5544C202.838 24.1605 200.595 27.406 197.153 28.6938L203.725 39.6666H198.457ZM186.774 15.8666V25.2938H193.554C196.214 25.1393 198.196 22.9241 198.04 20.2969C197.883 17.9272 195.953 15.9696 193.554 15.8666H186.774Z" fill="#BE11A5"/>
<path d="M207.168 11.4878H211.914V39.6666H207.168V11.4878Z" fill="#BE11A5"/>
<path d="M222.238 35.2365H235.017V39.6668H217.492V11.5396H234.808V15.9699H222.238V23.285H233.817V27.6638H222.238V35.2365Z" fill="#BE11A5"/>
<path d="M238.355 33.279L242.476 30.9608C243.623 34.1547 246.023 35.7002 249.621 35.7002C253.22 35.7002 254.994 34.2063 254.994 31.9911C255.046 30.9608 254.472 29.9305 253.533 29.4153C252.594 28.7972 250.873 28.1275 248.422 27.4062C245.657 26.582 244.301 26.0669 242.372 24.8305C240.442 23.5941 239.555 21.6881 239.555 19.1638C239.451 16.8972 240.494 14.682 242.267 13.2396C244.093 11.7456 246.44 10.9729 248.839 11.0244C253.168 10.8699 257.132 13.3426 258.905 17.2062L254.941 19.4214C253.742 16.8456 251.708 15.5063 248.891 15.5063C246.075 15.5063 244.354 16.8456 244.354 19.0093C244.354 21.1729 245.762 22.0487 250.195 23.3881C251.29 23.7487 252.073 24.0062 252.594 24.2123C253.116 24.4184 253.846 24.6759 254.733 25.0366C255.463 25.2941 256.193 25.7063 256.819 26.1699C258.332 27.3547 260.001 29.2608 259.792 31.9396C259.896 34.3093 258.853 36.5244 256.975 38.0184C255.098 39.5123 252.646 40.2335 249.569 40.2335C243.884 40.182 239.816 37.5547 238.355 33.279Z" fill="#BE11A5"/>
</svg>
