<svg width="243" height="86" viewBox="0 0 243 86" fill="none" xmlns="http://www.w3.org/2000/svg">
<g id="Frame" clip-path="url(#clip0_372_9742)">
<path id="Vector" d="M49.6524 49.1279C48.4644 50.4492 46.9143 51.3861 45.1981 51.8201C43.4818 52.254 41.6765 52.1656 40.0101 51.566C38.3437 50.9663 36.8911 49.8824 35.8359 48.4511C34.7807 47.0199 34.1702 45.3055 34.0816 43.5247C33.9929 41.7439 34.4301 39.9767 35.3379 38.4462C36.2457 36.9157 37.5834 35.6907 39.1818 34.9261C40.7803 34.1614 42.5678 33.8914 44.3185 34.1501C46.0693 34.4089 47.7046 35.1848 49.0178 36.3797C49.8925 37.1733 50.6031 38.1332 51.1086 39.2042C51.6142 40.2753 51.9048 41.4364 51.9637 42.6209C52.0227 43.8055 51.8488 44.9901 51.4522 46.1067C51.0555 47.2234 50.4439 48.2501 49.6524 49.1279Z" fill="url(#paint0_radial_372_9742)"/>
<path id="Vector_2" d="M45.3549 12.1752C46.0952 12.9211 46.7958 13.6804 47.4171 14.4397C49.579 17.0386 51.3597 19.9366 52.7049 23.0451C54.8266 23.4438 56.9867 23.5958 59.1428 23.498H59.5261H59.8699C65.7598 22.9556 71.2572 20.2876 75.3498 15.985L75.8918 15.4255C75.0722 14.4397 74.2394 13.4806 73.3273 12.5615C66.0466 5.2508 56.3984 0.824116 46.1459 0.090367C35.8934 -0.643382 25.7213 2.3648 17.4883 8.56519C30.5755 2.1445 39.6573 6.56705 45.3549 12.1752Z" fill="url(#paint1_linear_372_9742)"/>
<path id="Vector_3" d="M15.0554 55.948C15.3198 54.9223 15.6238 53.9365 15.9543 53.0174C17.1134 49.8345 18.7158 46.8339 20.7133 44.1057C19.9983 42.0567 19.0489 40.0987 17.8843 38.2711L17.6728 37.9381L17.4745 37.6583C14.0827 32.8367 9.08747 29.4006 3.39581 27.974L2.6423 27.7476C2.20606 28.9464 1.80947 30.1586 1.46577 31.4108C-1.18292 41.4164 -0.170964 52.0483 4.31677 61.3641C8.80451 70.68 16.4685 78.058 25.9085 82.1503C13.8127 73.8913 13.0592 63.7141 15.0554 55.948Z" fill="url(#paint2_linear_372_9742)"/>
<path id="Vector_4" d="M67.946 60.5706C66.9282 60.8503 65.9235 61.0768 64.9584 61.2499C61.6448 61.8281 58.2662 61.9267 54.9249 61.543C53.5266 63.1736 52.3201 64.9616 51.3292 66.8714C51.3292 66.9913 51.2102 67.0978 51.1573 67.2177C51.1034 67.3217 51.0549 67.4284 51.0119 67.5374C48.5384 72.9103 48.0691 79.0015 49.69 84.6948C49.69 84.9479 49.8354 85.201 49.9147 85.4541C51.1573 85.2276 52.4132 84.9878 53.6558 84.6548C63.5615 81.9538 72.1756 75.7588 77.9305 67.1971C83.6854 58.6355 86.1984 48.2763 85.0124 38.0049C83.9548 52.6979 75.5869 58.4259 67.946 60.5706Z" fill="url(#paint3_linear_372_9742)"/>
<path id="Vector_5" d="M17.4246 8.56538C11.1574 12.9777 6.25792 19.0879 3.29297 26.189C7.70135 27.1269 11.7852 29.2228 15.1306 32.264C18.476 35.3052 20.964 39.1837 22.3422 43.5062C23.5187 42.7469 27.1409 39.8563 29.5732 31.917C32.5212 22.3126 38.0998 15.2259 45.3573 12.1354C45.3573 12.1754 36.1698 -0.999052 17.4246 8.56538Z" fill="url(#paint4_linear_372_9742)"/>
<path id="Vector_6" d="M46.8509 77.7142C46.8457 71.2783 49.2375 65.0747 53.5532 60.3303L53.6193 60.2371C52.7336 59.2913 49.6534 56.9735 41.7217 58.7851C32.0583 61.0097 21.3241 60.7566 15.0581 55.9478C15.0581 55.9478 8.31619 70.6008 25.9113 82.1234C32.8261 85.3876 40.517 86.6115 48.0935 85.6535C47.2498 83.0937 46.83 80.4114 46.8509 77.7142Z" fill="url(#paint5_linear_372_9742)"/>
<path id="Vector_7" d="M76.9381 16.8643C74.5711 19.5751 71.6593 21.7478 68.3956 23.2383C65.1319 24.7288 61.591 25.503 58.0078 25.5095C56.1197 25.5028 54.2372 25.3019 52.3896 24.9101H52.297C51.9269 26.2422 51.6361 30.0387 56.9899 35.8466C63.7715 43.2264 68.8874 52.7109 67.9489 60.5836C67.9489 60.5836 83.8122 59.1583 85.0152 38.0179C84.3601 30.3394 81.5596 23.005 76.9381 16.8643Z" fill="url(#paint6_linear_372_9742)"/>
<path id="Vector_8" d="M104.752 54.0029H100.297V33.0757H107.449C112.736 33.0757 115.962 35.2603 115.962 40.0692C115.962 44.878 112.578 47.4623 107.078 47.4623H104.752V54.0029ZM104.659 43.506H107.078C109.722 43.506 111.348 42.4669 111.348 40.2557C111.348 38.0444 109.855 37.032 107.078 37.032H104.659V43.506Z" fill="#1A1A1A"/>
<path id="Vector_9" d="M119.199 43.5462C119.199 36.5128 123.443 32.7163 129.167 32.7163C135.578 32.7163 139.293 36.8192 139.293 43.5462C139.293 50.9926 134.983 54.3628 129.286 54.3628C123.271 54.3628 119.199 50.6197 119.199 43.5462ZM134.573 43.5462C134.573 38.7907 132.405 36.6726 129.167 36.6726C126.232 36.6726 123.879 38.8839 123.879 43.5462C123.879 48.2086 126.285 50.4198 129.405 50.4198C132.524 50.4198 134.573 48.2352 134.573 43.5462Z" fill="#1A1A1A"/>
<path id="Vector_10" d="M159.096 53.1641C157.362 54.0574 155.423 54.4711 153.478 54.363C147.133 54.363 142.902 50.6864 142.902 43.8128C142.902 36.6062 147.08 32.7164 153.874 32.7164C155.686 32.6742 157.486 33.0098 159.162 33.7022L158.184 37.472C157.013 37.0873 155.793 36.8764 154.562 36.8459C150.464 36.8459 147.675 38.9107 147.675 43.5064C147.675 47.929 150.318 50.1669 154.535 50.1669C155.798 50.1258 157.043 49.855 158.21 49.3676L159.096 53.1641Z" fill="#1A1A1A"/>
<path id="Vector_11" d="M175.381 48.4214H166.563L164.554 54.0029H161.91L169.842 33.0757H172.486L180.259 54.0029H177.469L175.381 48.4214ZM167.37 45.9704H174.495L171.032 36.1262H170.913L167.37 45.9704Z" fill="#1A1A1A"/>
<path id="Vector_12" d="M189.435 54.0029H186.792V35.5933H180.645V33.0757H195.596V35.5933H189.435V54.0029Z" fill="#1A1A1A"/>
<path id="Vector_13" d="M198.398 43.546C198.398 36.8856 202.232 32.7827 207.652 32.7827C213.826 32.7827 217.144 37.2053 217.144 43.546C217.144 50.6594 213.178 54.3094 207.745 54.3094C202.047 54.3094 198.398 50.1799 198.398 43.546ZM214.368 43.546C214.368 37.8047 211.816 35.2871 207.758 35.2871C204.109 35.2871 201.294 37.9512 201.294 43.546C201.294 49.1408 204.017 51.7917 208.115 51.7917C211.962 51.7917 214.368 48.9543 214.368 43.546Z" fill="#1A1A1A"/>
<path id="Vector_14" d="M242.998 54.0029H240.355L239.033 37.6581L233.745 54.0029H230.956L225.747 37.7114L224.425 54.0029H221.781L223.553 33.0757H226.818L232.423 51.0723L237.949 33.0757H241.214L242.998 54.0029Z" fill="#1A1A1A"/>
</g>
<defs>
<radialGradient id="paint0_radial_372_9742" cx="0" cy="0" r="1" gradientUnits="userSpaceOnUse" gradientTransform="translate(40.2253 36.7095) scale(12.5687 12.6652)">
<stop stop-color="#4495D1"/>
<stop offset="1" stop-color="#15256D"/>
</radialGradient>
<linearGradient id="paint1_linear_372_9742" x1="30.7607" y1="2.90002" x2="68.4551" y2="17.9596" gradientUnits="userSpaceOnUse">
<stop stop-color="#4495D1"/>
<stop offset="1" stop-color="#15256D"/>
</linearGradient>
<linearGradient id="paint2_linear_372_9742" x1="14.4128" y1="73.3696" x2="8.64673" y2="32.9304" gradientUnits="userSpaceOnUse">
<stop stop-color="#4495D1"/>
<stop offset="1" stop-color="#15256D"/>
</linearGradient>
<linearGradient id="paint3_linear_372_9742" x1="83.2474" y1="52.4372" x2="51.1406" y2="77.3944" gradientUnits="userSpaceOnUse">
<stop stop-color="#4495D1"/>
<stop offset="1" stop-color="#15256D"/>
</linearGradient>
<linearGradient id="paint4_linear_372_9742" x1="15.706" y1="31.9037" x2="32.7958" y2="5.87423" gradientUnits="userSpaceOnUse">
<stop stop-color="#4495D1"/>
<stop offset="1" stop-color="#15256D"/>
</linearGradient>
<linearGradient id="paint5_linear_372_9742" x1="47.6969" y1="69.1755" x2="17.3668" y2="72.2457" gradientUnits="userSpaceOnUse">
<stop stop-color="#4495D1"/>
<stop offset="1" stop-color="#15256D"/>
</linearGradient>
<linearGradient id="paint6_linear_372_9742" x1="67.2218" y1="24.9767" x2="73.4868" y2="56.4092" gradientUnits="userSpaceOnUse">
<stop stop-color="#4495D1"/>
<stop offset="1" stop-color="#15256D"/>
</linearGradient>
<clipPath id="clip0_372_9742">
<rect width="243" height="86" fill="white"/>
</clipPath>
</defs>
</svg>
