<svg width="189" height="93" viewBox="0 0 189 93" fill="none" xmlns="http://www.w3.org/2000/svg">
<g id="svg2041">
<g id="layer1">
<g id="g2058">
<path id="path26" d="M59.1094 60.2095H70.8596V64.0541H65.2699V91.068H59.1094V60.2095Z" fill="#0079C2"/>
<path id="path28" d="M77.8262 79.4834L78.882 64.0541H79.2357L80.2915 79.4834H77.8262ZM71.0039 91.068H77.0356L77.6065 82.8728H80.5112L81.0846 91.068H87.1138L83.9009 60.2095H74.2168L71.0039 91.068Z" fill="#0079C2"/>
<path id="path30" d="M95.9365 80.2675V86.0851C95.9365 86.8692 96.5427 87.0969 96.8963 87.0969C97.4773 87.0969 97.8814 86.6163 97.8814 86.0851V78.9017C97.8814 77.9405 97.7046 76.8782 95.4061 76.8782H92.9055V73.4888H95.5071C97.25 73.4888 97.8814 73.0841 97.8814 71.187V65.0659C97.8814 64.5347 97.4773 64.0541 96.8963 64.0541C96.5427 64.0541 95.9365 64.2565 95.9365 65.0659V70.0994H89.7734V65.7235C89.7734 63.5736 90.026 60.2095 94.3452 60.2095H99.4475C103.767 60.2095 104.045 63.5736 104.045 65.7235V70.6558C104.045 74.0199 101.695 74.9305 99.8516 74.8546V75.1582C103.994 75.057 104.045 78.244 104.045 79.3317V85.554C104.045 87.7292 103.767 91.068 99.4475 91.068H94.3452C90.026 91.068 89.7734 87.7292 89.7734 85.554V80.2675H95.9365Z" fill="#0079C2"/>
<path id="path32" d="M108.086 60.2095H122.357V91.068H116.194V64.0541H114.249V91.068H108.086V60.2095Z" fill="#0079C2"/>
<path id="path34" d="M132.562 77.1817V64.0541H133.37C134.027 64.0541 134.506 64.6106 134.506 65.5971V75.6388C134.506 76.6252 134.027 77.1817 133.37 77.1817H132.562ZM126.398 91.068H132.562V80.5711H136.098C140.392 80.5711 140.67 77.2323 140.67 75.057V65.7235C140.67 63.5736 140.392 60.2095 136.098 60.2095H126.398V91.068Z" fill="#0079C2"/>
<path id="path36" d="M152.819 86.0851C152.819 86.6163 152.415 87.0969 151.834 87.0969C151.48 87.0969 150.874 86.8692 150.874 86.0851V65.0659C150.874 64.2565 151.48 64.0541 151.834 64.0541C152.415 64.0541 152.819 64.5347 152.819 65.0659V86.0851ZM144.711 85.554C144.711 87.7292 144.989 91.068 149.283 91.068H154.41C158.704 91.068 158.982 87.7292 158.982 85.554V65.7235C158.982 63.5736 158.704 60.2095 154.41 60.2095H149.283C144.989 60.2095 144.711 63.5736 144.711 65.7235V85.554Z" fill="#0079C2"/>
<path id="path38" d="M179.037 60.2095H187.07V91.068H180.906V71.7182H180.679L177.497 91.068H172.571L169.414 71.7182H169.187V91.068H163.023V60.2095H171.03L175.047 81.9116L179.037 60.2095Z" fill="#0079C2"/>
<path id="path40" d="M51.1231 18.019C49.2363 9.74793 44.5079 3.01977 43.8562 1.93213C42.8257 3.47506 39.0546 9.41911 37.1374 15.9955C35.0435 23.3561 34.7354 29.8819 35.4578 36.2812C36.1751 42.7059 38.8853 49.3076 38.8853 49.3076C40.3251 52.7475 42.4822 56.4658 43.8865 58.2869C45.9451 55.6058 50.676 47.6129 52.1511 37.1918C52.972 31.3742 53.0074 26.2901 51.1231 18.019ZM43.8562 56.2128C42.9292 54.4675 41.4895 51.1541 41.3531 45.9941C41.3177 41.0365 43.3056 36.7618 43.8865 35.8765C44.4043 36.7618 46.1169 40.48 46.3215 45.5641C46.4604 50.5217 44.8135 54.4422 43.8562 56.2128ZM50.575 32.0571C50.5043 35.2189 50.1279 38.5577 49.648 40.5559C49.8198 37.1159 49.4081 32.2848 48.62 28.4907C47.8319 24.7219 45.6016 18.3984 43.8209 15.4896C42.1765 18.272 40.1508 23.7354 39.0899 28.4654C38.024 33.1954 37.9937 38.9371 37.9937 40.6571C37.7108 39.2153 37.0036 34.0301 37.2031 28.8448C37.3698 24.5702 38.3701 20.1437 38.9182 18.1202C41.0096 11.3668 43.3763 7.04149 43.8209 6.35855C44.2654 7.04149 47.2459 12.3785 48.7918 17.9685C50.33 23.5584 50.6407 28.9207 50.575 32.0571Z" fill="#0079C2"/>
<path id="path42" d="M47.0577 60.2093H32.7134V69.8463C32.726 69.8463 32.7361 69.821 32.7488 69.821C36.1284 66.4316 41.6095 66.4316 44.9916 69.821C48.3712 73.1851 48.3712 78.6739 44.9916 82.0632C44.9765 82.0885 44.9613 82.0885 44.9461 82.1138C44.9285 82.1138 44.9108 82.1391 44.8956 82.1644C41.5236 85.5032 37.1185 87.1726 32.7134 87.1726C28.2881 87.1726 23.8628 85.5032 20.4883 82.1138C14.5374 76.1698 13.8327 66.9375 18.3691 60.2093C18.9803 59.2987 19.6851 58.4387 20.4883 57.6293C23.8628 54.24 28.2881 52.5706 32.7134 52.5706V29.4014C15.7094 29.4014 1.92578 43.1865 1.92578 60.2093C1.92578 77.2321 15.7094 91.0426 32.7134 91.0426C41.5792 91.0426 49.5659 87.2738 55.1834 81.2791V60.2093H47.0577Z" fill="#0079C2"/>
</g>
</g>
</g>
</svg>
