<svg width="67" height="47" viewBox="0 0 67 47" fill="none" xmlns="http://www.w3.org/2000/svg">
<g id="flags / KG">
<rect id="Mask" x="0.848633" width="65.985" height="47" rx="2" fill="white"/>
<mask id="mask0_372_9224" style="mask-type:luminance" maskUnits="userSpaceOnUse" x="0" y="0" width="67" height="47">
<rect id="Mask_2" x="0.848633" width="65.985" height="47" rx="6" fill="white"/>
</mask>
<g mask="url(#mask0_372_9224)">
<rect id="Mask Copy" x="0.848633" width="65.985" height="47" fill="#F22A46"/>
<path id="Oval 9" fill-rule="evenodd" clip-rule="evenodd" d="M33.8427 31.3332C38.1811 31.3332 41.698 27.8261 41.698 23.4998C41.698 19.1736 38.1811 15.6665 33.8427 15.6665C29.5043 15.6665 25.9873 19.1736 25.9873 23.4998C25.9873 27.8261 29.5043 31.3332 33.8427 31.3332Z" fill="#FFF04D"/>
<path id="Star 28" fill-rule="evenodd" clip-rule="evenodd" d="M29.9958 40.3012L33.8414 34.577L37.6869 40.3012L38.661 33.48L44.6164 36.9735L42.526 30.4064L49.4117 30.9772L44.671 25.9648L51.1231 23.5L44.671 21.0351L49.4117 16.0227L42.526 16.5936L44.6164 10.0264L38.661 13.52L37.6869 6.69873L33.8414 12.423L29.9958 6.69873L29.0217 13.52L23.0663 10.0264L25.1567 16.5936L18.271 16.0227L23.0117 21.0351L16.5596 23.5L23.0117 25.9648L18.271 30.9772L25.1567 30.4064L23.0663 36.9735L29.0217 33.48L29.9958 40.3012ZM44.8387 23.4999C44.8387 29.5566 39.915 34.4665 33.8412 34.4665C27.7675 34.4665 22.8438 29.5566 22.8438 23.4999C22.8438 17.4431 27.7675 12.5332 33.8412 12.5332C39.915 12.5332 44.8387 17.4431 44.8387 23.4999Z" fill="#FFF04D"/>
</g>
</g>
</svg>
