<svg width="67" height="47" viewBox="0 0 67 47" fill="none" xmlns="http://www.w3.org/2000/svg">
<g id="flags / UZ">
<rect id="Mask" x="1.17969" y="0.25" width="65.485" height="46.5" rx="1.75" fill="white" stroke="#F5F5F5" stroke-width="0.5"/>
<mask id="mask0_372_9188" style="mask-type:luminance" maskUnits="userSpaceOnUse" x="0" y="0" width="67" height="47">
<rect id="Mask_2" x="1.17969" y="0.25" width="65.485" height="46.5" rx="5.75" fill="white" stroke="white" stroke-width="0.5"/>
</mask>
<g mask="url(#mask0_372_9188)">
<path id="Rectangle 2" fill-rule="evenodd" clip-rule="evenodd" d="M0.929688 15.6667H66.9147V0H0.929688V15.6667Z" fill="#04AAC8"/>
<path id="Rectangle 2_2" fill-rule="evenodd" clip-rule="evenodd" d="M0.929688 47.0002H66.9147V31.3335H0.929688V47.0002Z" fill="#23C840"/>
<path id="Oval 68" fill-rule="evenodd" clip-rule="evenodd" d="M11.9271 12.5333C12.8963 12.5333 13.7972 12.2416 14.5463 11.7413C14.46 11.747 14.3729 11.7498 14.2851 11.7498C12.1159 11.7498 10.3574 9.99629 10.3574 7.83317C10.3574 5.67006 12.1159 3.9165 14.2851 3.9165C14.3727 3.9165 14.4597 3.91937 14.5459 3.925C13.7969 3.42494 12.8961 3.1333 11.9271 3.1333C9.32404 3.1333 7.21387 5.23756 7.21387 7.8333C7.21387 10.429 9.32404 12.5333 11.9271 12.5333ZM19.7843 10.9666C19.7843 11.8318 19.0807 12.5332 18.2128 12.5332C17.345 12.5332 16.6414 11.8318 16.6414 10.9666C16.6414 10.1013 17.345 9.3999 18.2128 9.3999C19.0807 9.3999 19.7843 10.1013 19.7843 10.9666ZM24.4962 6.26663C25.3641 6.26663 26.0677 5.56521 26.0677 4.69997C26.0677 3.83472 25.3641 3.1333 24.4962 3.1333C23.6284 3.1333 22.9248 3.83472 22.9248 4.69997C22.9248 5.56521 23.6284 6.26663 24.4962 6.26663ZM32.3517 4.69997C32.3517 5.56521 31.6482 6.26663 30.7803 6.26663C29.9124 6.26663 29.2089 5.56521 29.2089 4.69997C29.2089 3.83472 29.9124 3.1333 30.7803 3.1333C31.6482 3.1333 32.3517 3.83472 32.3517 4.69997ZM30.7803 12.5333C31.6482 12.5333 32.3517 11.8319 32.3517 10.9666C32.3517 10.1014 31.6482 9.39997 30.7803 9.39997C29.9124 9.39997 29.2089 10.1014 29.2089 10.9666C29.2089 11.8319 29.9124 12.5333 30.7803 12.5333ZM26.0677 10.9666C26.0677 11.8318 25.3641 12.5332 24.4962 12.5332C23.6284 12.5332 22.9248 11.8318 22.9248 10.9666C22.9248 10.1013 23.6284 9.3999 24.4962 9.3999C25.3641 9.3999 26.0677 10.1013 26.0677 10.9666Z" fill="white"/>
</g>
</g>
</svg>
