<svg width="67" height="47" viewBox="0 0 67 47" fill="none" xmlns="http://www.w3.org/2000/svg">
<g id="flags / IR">
<rect id="Mask" x="1.0166" y="0.25" width="65.485" height="46.5" rx="1.75" fill="white" stroke="#F5F5F5" stroke-width="0.5"/>
<mask id="mask0_372_9239" style="mask-type:luminance" maskUnits="userSpaceOnUse" x="0" y="0" width="67" height="47">
<rect id="Mask_2" x="1.0166" y="0.25" width="65.485" height="46.5" rx="5.75" fill="white" stroke="white" stroke-width="0.5"/>
</mask>
<g mask="url(#mask0_372_9239)">
<path id="Rectangle 2" fill-rule="evenodd" clip-rule="evenodd" d="M0.766602 15.6667H66.7516V0H0.766602V15.6667Z" fill="#38BB56"/>
<path id="Rectangle 2_2" fill-rule="evenodd" clip-rule="evenodd" d="M0.766602 47.0002H66.7516V31.3335H0.766602V47.0002Z" fill="#DE1B27"/>
<path id="Rectangle 223" fill-rule="evenodd" clip-rule="evenodd" d="M4.24349 12.5332C4.05939 12.5332 3.91016 12.6824 3.91016 12.8665V15.3332C3.91016 15.5173 4.05939 15.6665 4.24349 15.6665H6.71968C6.90378 15.6665 7.05301 15.5173 7.05301 15.3332V12.8665C7.05301 12.6824 6.90378 12.5332 6.71968 12.5332H4.24349ZM10.5277 12.5332C10.3436 12.5332 10.1943 12.6824 10.1943 12.8665V15.3332C10.1943 15.5173 10.3436 15.6665 10.5277 15.6665H13.0039C13.188 15.6665 13.3372 15.5173 13.3372 15.3332V12.8665C13.3372 12.6824 13.188 12.5332 13.0039 12.5332H10.5277ZM16.4776 12.8665C16.4776 12.6824 16.6269 12.5332 16.8109 12.5332H19.2871C19.4712 12.5332 19.6205 12.6824 19.6205 12.8665V15.3332C19.6205 15.5173 19.4712 15.6665 19.2871 15.6665H16.8109C16.6268 15.6665 16.4776 15.5173 16.4776 15.3332V12.8665ZM23.0951 12.5332C22.911 12.5332 22.7617 12.6824 22.7617 12.8665V15.3332C22.7617 15.5173 22.911 15.6665 23.0951 15.6665H25.5712C25.7553 15.6665 25.9046 15.5173 25.9046 15.3332V12.8665C25.9046 12.6824 25.7553 12.5332 25.5712 12.5332H23.0951ZM29.049 12.8665C29.049 12.6824 29.1982 12.5332 29.3823 12.5332H31.8585C32.0426 12.5332 32.1918 12.6824 32.1918 12.8665V15.3332C32.1918 15.5173 32.0426 15.6665 31.8585 15.6665H29.3823C29.1982 15.6665 29.049 15.5173 29.049 15.3332V12.8665ZM35.6663 12.5332C35.4822 12.5332 35.333 12.6824 35.333 12.8665V15.3332C35.333 15.5173 35.4822 15.6665 35.6663 15.6665H38.1425C38.3266 15.6665 38.4759 15.5173 38.4759 15.3332V12.8665C38.4759 12.6824 38.3266 12.5332 38.1425 12.5332H35.6663ZM41.6164 12.8665C41.6164 12.6824 41.7657 12.5332 41.9498 12.5332H44.426C44.61 12.5332 44.7593 12.6824 44.7593 12.8665V15.3332C44.7593 15.5173 44.61 15.6665 44.426 15.6665H41.9498C41.7657 15.6665 41.6164 15.5173 41.6164 15.3332V12.8665ZM48.2335 12.5332C48.0494 12.5332 47.9002 12.6824 47.9002 12.8665V15.3332C47.9002 15.5173 48.0494 15.6665 48.2335 15.6665H50.7097C50.8938 15.6665 51.043 15.5173 51.043 15.3332V12.8665C51.043 12.6824 50.8938 12.5332 50.7097 12.5332H48.2335ZM54.1836 12.8665C54.1836 12.6824 54.3328 12.5332 54.5169 12.5332H56.9931C57.1772 12.5332 57.3265 12.6824 57.3265 12.8665V15.3332C57.3265 15.5173 57.1772 15.6665 56.9931 15.6665H54.5169C54.3328 15.6665 54.1836 15.5173 54.1836 15.3332V12.8665ZM60.8009 12.5332C60.6169 12.5332 60.4676 12.6824 60.4676 12.8665V15.3332C60.4676 15.5173 60.6169 15.6665 60.8009 15.6665H63.2771C63.4612 15.6665 63.6105 15.5173 63.6105 15.3332V12.8665C63.6105 12.6824 63.4612 12.5332 63.2771 12.5332H60.8009ZM3.91016 31.6665C3.91016 31.4824 4.05939 31.3332 4.24349 31.3332H6.71968C6.90378 31.3332 7.05301 31.4824 7.05301 31.6665V34.1332C7.05301 34.3173 6.90378 34.4665 6.71968 34.4665H4.24349C4.05939 34.4665 3.91016 34.3173 3.91016 34.1332V31.6665ZM10.5277 31.333C10.3436 31.333 10.1943 31.4822 10.1943 31.6663V34.133C10.1943 34.3171 10.3436 34.4663 10.5277 34.4663H13.0039C13.188 34.4663 13.3372 34.3171 13.3372 34.133V31.6663C13.3372 31.4822 13.188 31.333 13.0039 31.333H10.5277ZM16.4776 31.6663C16.4776 31.4822 16.6269 31.333 16.8109 31.333H19.2871C19.4712 31.333 19.6205 31.4822 19.6205 31.6663V34.133C19.6205 34.3171 19.4712 34.4663 19.2871 34.4663H16.8109C16.6268 34.4663 16.4776 34.3171 16.4776 34.133V31.6663ZM23.0951 31.333C22.911 31.333 22.7617 31.4822 22.7617 31.6663V34.133C22.7617 34.3171 22.911 34.4663 23.0951 34.4663H25.5712C25.7553 34.4663 25.9046 34.3171 25.9046 34.133V31.6663C25.9046 31.4822 25.7553 31.333 25.5712 31.333H23.0951ZM29.049 31.6663C29.049 31.4822 29.1982 31.333 29.3823 31.333H31.8585C32.0426 31.333 32.1918 31.4822 32.1918 31.6663V34.133C32.1918 34.3171 32.0426 34.4663 31.8585 34.4663H29.3823C29.1982 34.4663 29.049 34.3171 29.049 34.133V31.6663ZM35.6663 31.333C35.4822 31.333 35.333 31.4822 35.333 31.6663V34.133C35.333 34.3171 35.4822 34.4663 35.6663 34.4663H38.1425C38.3266 34.4663 38.4759 34.3171 38.4759 34.133V31.6663C38.4759 31.4822 38.3266 31.333 38.1425 31.333H35.6663ZM41.6164 31.6663C41.6164 31.4822 41.7657 31.333 41.9498 31.333H44.426C44.61 31.333 44.7593 31.4822 44.7593 31.6663V34.133C44.7593 34.3171 44.61 34.4663 44.426 34.4663H41.9498C41.7657 34.4663 41.6164 34.3171 41.6164 34.133V31.6663ZM48.2335 31.3332C48.0494 31.3332 47.9002 31.4824 47.9002 31.6665V34.1332C47.9002 34.3173 48.0494 34.4665 48.2335 34.4665H50.7097C50.8938 34.4665 51.043 34.3173 51.043 34.1332V31.6665C51.043 31.4824 50.8938 31.3332 50.7097 31.3332H48.2335ZM54.1836 31.6663C54.1836 31.4822 54.3328 31.333 54.5169 31.333H56.9931C57.1772 31.333 57.3265 31.4822 57.3265 31.6663V34.133C57.3265 34.3171 57.1772 34.4663 56.9931 34.4663H54.5169C54.3328 34.4663 54.1836 34.3171 54.1836 34.133V31.6663ZM60.8009 31.333C60.6169 31.333 60.4676 31.4822 60.4676 31.6663V34.133C60.4676 34.3171 60.6169 34.4663 60.8009 34.4663H63.2771C63.4612 34.4663 63.6105 34.3171 63.6105 34.133V31.6663C63.6105 31.4822 63.4612 31.333 63.2771 31.333H60.8009Z" fill="white" fill-opacity="0.5"/>
<g id="Oval 1">
<mask id="path-6-inside-1_372_9239" fill="white">
<path fill-rule="evenodd" clip-rule="evenodd" d="M30.585 20.0249C29.6388 20.8845 29.0449 22.1232 29.0449 23.5002C29.0449 26.096 31.1551 28.2002 33.7581 28.2002C36.3612 28.2002 38.4714 26.096 38.4714 23.5002C38.4714 22.1492 37.8997 20.9313 36.9845 20.074"/>
</mask>
<path d="M30.1367 19.5315C29.0575 20.5119 28.3783 21.9272 28.3783 23.5002H29.7116C29.7116 22.3192 30.22 21.2572 31.0333 20.5183L30.1367 19.5315ZM28.3783 23.5002C28.3783 26.4659 30.7887 28.8669 33.7581 28.8669V27.5336C31.5215 27.5336 29.7116 25.726 29.7116 23.5002H28.3783ZM33.7581 28.8669C36.7276 28.8669 39.138 26.4659 39.138 23.5002H37.8047C37.8047 25.726 35.9947 27.5336 33.7581 27.5336V28.8669ZM39.138 23.5002C39.138 21.957 38.4842 20.5653 37.4402 19.5874L36.5287 20.5605C37.3153 21.2973 37.8047 22.3414 37.8047 23.5002H39.138Z" fill="#D80915" mask="url(#path-6-inside-1_372_9239)"/>
</g>
<rect id="Rectangle 243" x="32.1895" y="21.9331" width="3.14286" height="6.26667" rx="0.666667" fill="#D80915"/>
</g>
</g>
</svg>
