<svg width="66" height="47" viewBox="0 0 66 47" fill="none" xmlns="http://www.w3.org/2000/svg">
<g id="flags / GE">
<rect id="Mask" x="1.15918" y="0.25" width="64.4852" height="46.5" rx="1.75" fill="white" stroke="#F5F5F5" stroke-width="0.5"/>
<mask id="mask0_372_9153" style="mask-type:luminance" maskUnits="userSpaceOnUse" x="0" y="0" width="66" height="47">
<rect id="Mask_2" x="1.15918" y="0.25" width="64.4852" height="46.5" rx="5.75" fill="white" stroke="white" stroke-width="0.5"/>
</mask>
<g mask="url(#mask0_372_9153)">
<path id="Rectangle 2" fill-rule="evenodd" clip-rule="evenodd" d="M38.0461 50.1334H28.7625V28.2H-2.18359V18.8H28.7625V-3.1333H38.0461V18.8H68.9907V28.2H38.0461V50.1334Z" fill="#FF2B37"/>
<path id="Rectangle 742" fill-rule="evenodd" clip-rule="evenodd" d="M51.0399 10.3405L47.3281 10.9669V7.83353L51.0399 8.45991L50.4209 4.7002H53.5161L52.8971 8.4604L56.6117 7.83353V10.9669L52.8971 10.34L53.5161 14.1002H50.4209L51.0399 10.3405Z" fill="#FD0D1B"/>
<path id="Rectangle 742_2" fill-rule="evenodd" clip-rule="evenodd" d="M13.9042 10.3405L10.1924 10.9669V7.83353L13.9042 8.45991L13.2852 4.7002H16.3804L15.7613 8.4604L19.476 7.83353V10.9669L15.7613 10.34L16.3804 14.1002H13.2852L13.9042 10.3405Z" fill="#FD0D1B"/>
<path id="Rectangle 742_3" fill-rule="evenodd" clip-rule="evenodd" d="M13.9042 38.5402L10.1924 39.1666V36.0332L13.9042 36.6596L13.2852 32.8999H16.3804L15.7613 36.6601L19.476 36.0332V39.1666L15.7613 38.5397L16.3804 42.2999H13.2852L13.9042 38.5402Z" fill="#FD0D1B"/>
<path id="Rectangle 742_4" fill-rule="evenodd" clip-rule="evenodd" d="M51.0399 38.5402L47.3281 39.1666V36.0332L51.0399 36.6596L50.4209 32.8999H53.5161L52.8971 36.6601L56.6117 36.0332V39.1666L52.8971 38.5397L53.5161 42.2999H50.4209L51.0399 38.5402Z" fill="#FD0D1B"/>
</g>
</g>
</svg>
