<svg width="67" height="47" viewBox="0 0 67 47" fill="none" xmlns="http://www.w3.org/2000/svg">
<g id="flags / KZ">
<rect id="Mask" x="0.888672" width="65.985" height="47" rx="2" fill="white"/>
<mask id="mask0_372_9202" style="mask-type:luminance" maskUnits="userSpaceOnUse" x="0" y="0" width="67" height="47">
<rect id="Mask_2" x="0.888672" width="65.985" height="47" rx="6" fill="white"/>
</mask>
<g mask="url(#mask0_372_9202)">
<rect id="Mask Copy" x="0.888672" width="65.985" height="47" fill="#30C6E0"/>
<path id="Oval 9" fill-rule="evenodd" clip-rule="evenodd" d="M33.8805 32.9001C39.0866 32.9001 43.307 28.6916 43.307 23.5001C43.307 18.3086 39.0866 14.1001 33.8805 14.1001C28.6745 14.1001 24.4541 18.3086 24.4541 23.5001C24.4541 28.6916 28.6745 32.9001 33.8805 32.9001Z" fill="#FFCD4B"/>
<path id="Star 28" fill-rule="evenodd" clip-rule="evenodd" d="M30.0358 40.3012L33.8814 34.577L37.727 40.3012L38.701 33.48L44.6564 36.9735L42.5661 30.4064L49.4517 30.9772L44.711 25.9648L51.1632 23.5L44.711 21.0351L49.4517 16.0227L42.5661 16.5936L44.6564 10.0264L38.701 13.52L37.727 6.69873L33.8814 12.423L30.0358 6.69873L29.0618 13.52L23.1064 10.0264L25.1967 16.5936L18.311 16.0227L23.0518 21.0351L16.5996 23.5L23.0518 25.9648L18.311 30.9772L25.1967 30.4064L23.1064 36.9735L29.0618 33.48L30.0358 40.3012ZM44.8788 23.4999C44.8788 29.5566 39.955 34.4665 33.8813 34.4665C27.8075 34.4665 22.8838 29.5566 22.8838 23.4999C22.8838 17.4431 27.8075 12.5332 33.8813 12.5332C39.955 12.5332 44.8788 17.4431 44.8788 23.4999Z" fill="#FFCD4B"/>
<path id="Rectangle 294" fill-rule="evenodd" clip-rule="evenodd" d="M4.03223 3.46663C4.03223 3.28254 4.18146 3.1333 4.36556 3.1333H6.84175C7.02585 3.1333 7.17508 3.28254 7.17508 3.46663V5.9333C7.17508 6.1174 7.02585 6.26663 6.84175 6.26663H4.36556C4.18146 6.26663 4.03223 6.1174 4.03223 5.9333V3.46663ZM4.03223 9.7333C4.03223 9.54921 4.18146 9.39997 4.36556 9.39997H6.84175C7.02585 9.39997 7.17508 9.54921 7.17508 9.7333V12.2C7.17508 12.3841 7.02585 12.5333 6.84175 12.5333H4.36556C4.18146 12.5333 4.03223 12.3841 4.03223 12.2V9.7333ZM4.36556 15.6666C4.18146 15.6666 4.03223 15.8159 4.03223 16V18.4666C4.03223 18.6507 4.18146 18.8 4.36556 18.8H6.84175C7.02585 18.8 7.17508 18.6507 7.17508 18.4666V16C7.17508 15.8159 7.02585 15.6666 6.84175 15.6666H4.36556ZM4.03223 22.2666C4.03223 22.0825 4.18146 21.9333 4.36556 21.9333H6.84175C7.02585 21.9333 7.17508 22.0825 7.17508 22.2666V24.7333C7.17508 24.9174 7.02585 25.0666 6.84175 25.0666H4.36556C4.18146 25.0666 4.03223 24.9174 4.03223 24.7333V22.2666ZM4.36556 28.2C4.18146 28.2 4.03223 28.3492 4.03223 28.5333V31C4.03223 31.1841 4.18146 31.3333 4.36556 31.3333H6.84175C7.02585 31.3333 7.17508 31.1841 7.17508 31V28.5333C7.17508 28.3492 7.02585 28.2 6.84175 28.2H4.36556ZM4.03223 34.8C4.03223 34.6159 4.18146 34.4666 4.36556 34.4666H6.84175C7.02585 34.4666 7.17508 34.6159 7.17508 34.8V37.2666C7.17508 37.4507 7.02585 37.6 6.84175 37.6H4.36556C4.18146 37.6 4.03223 37.4507 4.03223 37.2666V34.8ZM4.36556 40.7333C4.18146 40.7333 4.03223 40.8825 4.03223 41.0666V43.5333C4.03223 43.7174 4.18146 43.8666 4.36556 43.8666H6.84175C7.02585 43.8666 7.17508 43.7174 7.17508 43.5333V41.0666C7.17508 40.8825 7.02585 40.7333 6.84175 40.7333H4.36556ZM7.17578 37.9334C7.17578 37.7493 7.32502 37.6001 7.50911 37.6001H9.98531C10.1694 37.6001 10.3186 37.7493 10.3186 37.9334V40.4001C10.3186 40.5842 10.1694 40.7334 9.98531 40.7334H7.50911C7.32502 40.7334 7.17578 40.5842 7.17578 40.4001V37.9334ZM7.50911 31.3335C7.32502 31.3335 7.17578 31.4827 7.17578 31.6668V34.1335C7.17578 34.3176 7.32502 34.4668 7.50911 34.4668H9.98531C10.1694 34.4668 10.3186 34.3176 10.3186 34.1335V31.6668C10.3186 31.4827 10.1694 31.3335 9.98531 31.3335H7.50911ZM7.17578 25.3997C7.17578 25.2156 7.32502 25.0664 7.50911 25.0664H9.98531C10.1694 25.0664 10.3186 25.2156 10.3186 25.3997V27.8664C10.3186 28.0505 10.1694 28.1997 9.98531 28.1997H7.50911C7.32502 28.1997 7.17578 28.0505 7.17578 27.8664V25.3997ZM7.50911 18.7998C7.32502 18.7998 7.17578 18.949 7.17578 19.1331V21.5998C7.17578 21.7839 7.32502 21.9331 7.50911 21.9331H9.98531C10.1694 21.9331 10.3186 21.7839 10.3186 21.5998V19.1331C10.3186 18.949 10.1694 18.7998 9.98531 18.7998H7.50911ZM7.17578 12.8665C7.17578 12.6824 7.32502 12.5332 7.50911 12.5332H9.98531C10.1694 12.5332 10.3186 12.6824 10.3186 12.8665V15.3332C10.3186 15.5173 10.1694 15.6665 9.98531 15.6665H7.50911C7.32502 15.6665 7.17578 15.5173 7.17578 15.3332V12.8665ZM7.50911 6.2666C7.32502 6.2666 7.17578 6.41584 7.17578 6.59994V9.0666C7.17578 9.2507 7.32502 9.39993 7.50911 9.39993H9.98531C10.1694 9.39993 10.3186 9.2507 10.3186 9.0666V6.59993C10.3186 6.41584 10.1694 6.2666 9.98531 6.2666H7.50911Z" fill="#FFCD4B"/>
</g>
</g>
</svg>
