<svg width="67" height="47" viewBox="0 0 67 47" fill="none" xmlns="http://www.w3.org/2000/svg">
<g id="flags / CN">
<rect id="Mask" x="0.787109" width="65.985" height="47" rx="2" fill="white"/>
<mask id="mask0_372_9277" style="mask-type:luminance" maskUnits="userSpaceOnUse" x="0" y="0" width="67" height="47">
<rect id="Mask_2" x="0.787109" width="65.985" height="47" rx="6" fill="white"/>
</mask>
<g mask="url(#mask0_372_9277)">
<rect id="Mask_3" x="0.787109" width="65.985" height="47" fill="#F1361D"/>
<path id="Star 2" fill-rule="evenodd" clip-rule="evenodd" d="M24.5225 7.28694L26.8047 7.67493L28.5164 9.22945L28.9055 6.95361L30.4644 5.24671L28.1821 4.85871L26.4704 3.3042L26.0813 5.58004L24.5225 7.28694ZM30.6357 15.247L32.6133 14.0468L34.9279 14.1001L33.7243 12.128L33.7778 9.81993L31.8001 11.0202L29.4855 10.9668L30.6892 12.939L30.6357 15.247ZM27.9537 28.1318L26.0192 29.4L25.9918 27.0915L24.7197 25.1625L27.0348 25.1354L28.9693 23.8672L28.9967 26.1756L30.2688 28.1047L27.9537 28.1318ZM29.634 22.1637L31.9351 21.9094L34.0102 22.9332L33.7551 20.6386L34.7818 18.5693L32.4808 18.8237L30.4057 17.7999L30.6607 20.0945L29.634 22.1637Z" fill="#FFDC42"/>
<path id="Star 8" fill-rule="evenodd" clip-rule="evenodd" d="M16.4977 19.3326L10.957 23.2714L13.0013 16.7995L7.53265 12.7618L14.3368 12.7007L16.4977 6.2666L18.6586 12.7007L25.4628 12.7618L19.9941 16.7995L22.0384 23.2714L16.4977 19.3326Z" fill="#FFDC42"/>
</g>
</g>
</svg>
