<svg width="22" height="23" viewBox="0 0 22 23" xmlns="http://www.w3.org/2000/svg">
<path d="M19.8016 9.20005L18.1675 17.7418C17.9659 18.7955 17.8651 19.3224 17.602 19.7165C17.3699 20.0641 17.0505 20.3378 16.679 20.5076C16.2577 20.7001 15.7438 20.7001 14.7159 20.7001H7.28727C6.25935 20.7001 5.74539 20.7001 5.32412 20.5076C4.95263 20.3378 4.63323 20.0641 4.40117 19.7165C4.13802 19.3224 4.03722 18.7955 3.83563 17.7418L2.20156 9.20005M19.8016 9.20005H17.6016M19.8016 9.20005H20.9016M2.20156 9.20005H1.10156M2.20156 9.20005H4.40156M4.40156 9.20005H17.6016M4.40156 9.20005L7.70156 2.30005M17.6016 9.20005L14.3016 2.30005M7.70156 12.65V16.1M11.0016 12.65V16.1M14.3016 12.65V16.1" stroke="currentColor" stroke-width="1.5" stroke-linecap="round" stroke-linejoin="round" fill="none"/>
</svg>
