<svg width="24" height="24" viewBox="0 0 24 24" xmlns="http://www.w3.org/2000/svg">
<path d="M23.2929 3.10711C23.6834 2.71658 23.6834 2.08342 23.2929 1.69289L22.3071 0.707107C21.9166 0.316583 21.2834 0.316582 20.8929 0.707107L12 9.6L3.10711 0.707107C2.71658 0.316583 2.08342 0.316583 1.69289 0.707107L0.707107 1.69289C0.316583 2.08342 0.316582 2.71658 0.707107 3.10711L9.6 12L0.707107 20.8929C0.316583 21.2834 0.316582 21.9166 0.707107 22.3071L1.69289 23.2929C2.08342 23.6834 2.71658 23.6834 3.10711 23.2929L12 14.4L20.8929 23.2929C21.2834 23.6834 21.9166 23.6834 22.3071 23.2929L23.2929 22.3071C23.6834 21.9166 23.6834 21.2834 23.2929 20.8929L14.4 12L23.2929 3.10711Z" fill="currentColor"/>
</svg>
