<svg width="24" height="24" viewBox="0 0 24 24" xmlns="http://www.w3.org/2000/svg">
<path d="M22.9995 7C22.9995 8.60275 22.3755 10.1095 21.2423 11.2428L10.4348 22.1785C9.55579 23.0575 8.40154 23.497 7.24804 23.497C6.09604 23.497 4.94404 23.0583 4.06729 22.1815C2.31304 20.4265 2.31304 17.572 4.06729 15.8178L11.8748 8.0545C13.047 6.88975 14.91 6.8515 16.0298 7.96975C16.5765 8.5165 16.8645 9.2545 16.8413 10.0488C16.818 10.8258 16.4978 11.5623 15.939 12.121L8.52979 19.5303C8.23654 19.8235 7.76254 19.8235 7.46929 19.5303C7.17604 19.237 7.17604 18.763 7.46929 18.4698L14.8785 11.0605C15.1658 10.7733 15.3308 10.3983 15.342 10.0045C15.3533 9.628 15.2205 9.2815 14.9693 9.03025C14.433 8.49625 13.5195 8.5345 12.933 9.118L5.12629 16.8798C3.95854 18.0483 3.95854 19.9518 5.12779 21.121C6.29779 22.2903 8.20054 22.2903 9.37054 21.121L20.178 10.1853C21.0315 9.33175 21.4995 8.20225 21.4995 7C21.4995 5.79775 21.0315 4.66825 20.1818 3.8185C19.3313 2.968 18.2018 2.5 16.9995 2.5C15.7973 2.5 14.6678 2.968 13.8173 3.8185L3.27829 14.2825C2.98354 14.5743 2.50954 14.5728 2.21779 14.278C1.92604 13.984 1.92754 13.51 2.22154 13.2175L12.759 2.75575C13.89 1.624 15.3968 1 16.9995 1C18.6023 1 20.109 1.624 21.2423 2.758C22.3755 3.8905 22.9995 5.39725 22.9995 7Z" fill="currentColor"/>
</svg>
