<svg width="30" height="30" viewBox="0 0 30 30" xmlns="http://www.w3.org/2000/svg">
<path d="M15 30C23.2844 30 30 23.2844 30 15C30 6.71562 23.2844 0 15 0C6.71562 0 0 6.71562 0 15C0 23.2844 6.71562 30 15 30Z" fill="currentColor"/>
<path d="M8.53031 8.23047V13.333C9.30719 12.4067 10.2384 11.9405 11.3184 11.9405C11.8747 11.9405 12.3728 12.0467 12.8197 12.2573C13.2678 12.4667 13.6028 12.7355 13.8291 13.0617C14.0566 13.3911 14.2103 13.7517 14.2934 14.1492C14.3759 14.5448 14.4172 15.1605 14.4172 15.9955V21.4511H12.0034V16.5373C12.0034 15.5623 11.9597 14.9448 11.8678 14.6823C11.7817 14.4252 11.611 14.2049 11.3834 14.0573C11.1509 13.9005 10.8616 13.823 10.5122 13.823C10.1122 13.823 9.75344 13.923 9.44156 14.1217C9.12281 14.3217 8.89406 14.6205 8.74906 15.0198C8.60156 15.4198 8.52781 16.0105 8.53031 16.7923L8.52781 21.4511H6.11719V8.23047H8.53094M18.0347 8.23047V13.333C18.8122 12.4067 19.7428 11.9405 20.8222 11.9405C21.3766 11.9405 21.8784 12.0467 22.3259 12.2573C22.7722 12.4667 23.1072 12.7355 23.3322 13.0617C23.5593 13.3889 23.7173 13.7589 23.7966 14.1492C23.8797 14.5448 23.9209 15.1605 23.9209 15.9955V21.4511H21.5097V16.5373C21.5097 15.5623 21.4641 14.9448 21.3722 14.6823C21.2861 14.4248 21.1148 14.2044 20.8866 14.0573C20.6566 13.9005 20.3647 13.823 20.0153 13.823C19.6159 13.823 19.2572 13.923 18.9447 14.1217C18.6303 14.3217 18.4003 14.6205 18.2534 15.0198C18.1084 15.4198 18.0347 16.0105 18.0347 16.7923V21.4511H15.6241V8.23047H18.0347Z" fill="#363842"/>
</svg>
