<svg width="30" height="30" viewBox="0 0 30 30" xmlns="http://www.w3.org/2000/svg">
<path d="M14.9767 0C10.1109 0 6.15234 3.95851 6.15234 8.82431V21.1757C6.15234 26.0415 10.1109 30 14.9767 30C19.8425 30 23.801 26.0415 23.801 21.1757V8.82431C23.801 3.95851 19.8425 0 14.9767 0ZM22.001 21.1757C22.001 25.0488 18.8498 28.2001 14.9767 28.2001C11.1035 28.2001 7.95227 25.0488 7.95227 21.1757V8.82431C7.95227 4.95117 11.1035 1.79993 14.9767 1.79993C18.8498 1.79993 22.001 4.95117 22.001 8.82431V21.1757Z" fill="currentColor"/>
<path d="M14.9781 5.96786C14.481 5.96786 14.0781 6.3707 14.0781 6.86783V11.0101C14.0781 11.507 14.481 11.9101 14.9781 11.9101C15.475 11.9101 15.8781 11.507 15.8781 11.0101V6.86783C15.8781 6.3707 15.4752 5.96786 14.9781 5.96786Z" fill="currentColor"/>
</svg>
