<svg width="25" height="16" viewBox="0 0 25 16" xmlns="http://www.w3.org/2000/svg">
<path d="M24.1111 0H0.888889C0.397969 0 0 0.397969 0 0.888889C0 1.37981 0.39797 1.77778 0.88889 1.77778H24.1111C24.602 1.77778 25 1.37981 25 0.888889C25 0.397969 24.602 0 24.1111 0Z" fill="currentColor"/>
<path d="M15.1825 14.2227H0.888889C0.397969 14.2227 0 14.6206 0 15.1115C0 15.6025 0.39797 16.0004 0.88889 16.0004H15.1825C15.6735 16.0004 16.0714 15.6025 16.0714 15.1115C16.0714 14.6206 15.6735 14.2227 15.1825 14.2227Z" fill="currentColor"/>
<path d="M24.1111 7.11133H0.888889C0.397969 7.11133 0 7.5093 0 8.00022C0 8.49114 0.39797 8.88911 0.88889 8.88911H24.1111C24.602 8.88911 25 8.49114 25 8.00022C25 7.5093 24.602 7.11133 24.1111 7.11133Z" fill="currentColor"/>
</svg>
