<svg width="22" height="22" viewBox="0 0 22 22" xmlns="http://www.w3.org/2000/svg">
<path d="M4.48433 14.6241C6.65425 17.218 9.26635 19.2603 12.2477 20.7053C13.3828 21.2433 14.9008 21.8815 16.5921 21.9909C16.6969 21.9954 16.7972 22 16.9021 22C18.0372 22 18.9489 21.608 19.692 20.8011C19.6965 20.7965 19.7056 20.7874 19.7102 20.7783C19.9746 20.4592 20.2755 20.172 20.59 19.8666C20.8043 19.6614 21.0231 19.4472 21.2328 19.2283C22.2038 18.2163 22.2038 16.9308 21.2237 15.9507L18.4839 13.2109C18.0189 12.7277 17.4628 12.4724 16.8793 12.4724C16.2958 12.4724 15.7351 12.7277 15.2564 13.2064L13.6244 14.8384C13.474 14.7518 13.319 14.6743 13.1731 14.6013C12.9908 14.5102 12.8221 14.4235 12.6717 14.3278C11.1855 13.3842 9.83618 12.1533 8.54608 10.5715C7.8942 9.74637 7.45657 9.05346 7.15114 8.34687C7.57965 7.95939 7.98081 7.55367 8.3683 7.15707C8.50506 7.01575 8.64637 6.87443 8.78769 6.73311C9.28002 6.24078 9.54443 5.67095 9.54443 5.092C9.54443 4.51305 9.28458 3.94322 8.78769 3.45089L7.42922 2.09242C7.26966 1.93286 7.11923 1.77787 6.96423 1.61832C6.66336 1.30833 6.34882 0.989225 6.03883 0.702031C5.56929 0.241608 5.01769 0 4.43419 0C3.85524 0 3.29909 0.241608 2.81131 0.706589L1.10638 2.41152C0.486406 3.0315 0.13539 3.78367 0.062452 4.65437C-0.0241622 5.74389 0.176418 6.90178 0.696103 8.30128C1.49387 10.4666 2.69735 12.477 4.48433 14.6241ZM1.17476 4.7501C1.22946 4.1438 1.46195 3.6378 1.89958 3.20017L3.5954 1.50435C3.8598 1.24907 4.15155 1.11687 4.43419 1.11687C4.71227 1.11687 4.9949 1.24907 5.25474 1.51347C5.56017 1.7961 5.84737 2.09242 6.15736 2.40696C6.31235 2.56651 6.4719 2.72607 6.63145 2.89018L7.98993 4.24865C8.27256 4.53129 8.41844 4.81848 8.41844 5.10112C8.41844 5.38375 8.27256 5.67095 7.98993 5.95359C7.84861 6.0949 7.70729 6.24078 7.56598 6.3821C7.14202 6.81061 6.74542 7.21633 6.30779 7.60381C6.29867 7.61293 6.29411 7.61749 6.285 7.62661C5.90663 8.00497 5.96589 8.36511 6.05707 8.63862C6.06162 8.6523 6.06618 8.66142 6.07074 8.67509C6.42176 9.51844 6.90953 10.3208 7.67082 11.2781C9.03842 12.9648 10.4789 14.2731 12.0654 15.2806C12.2614 15.4082 12.4711 15.5085 12.6671 15.6088C12.8494 15.7 13.0181 15.7866 13.1685 15.8823C13.1868 15.8914 13.2005 15.9005 13.2187 15.9097C13.3691 15.9872 13.515 16.0236 13.6609 16.0236C14.0256 16.0236 14.2626 15.7911 14.3401 15.7136L16.045 14.0087C16.3094 13.7443 16.5966 13.603 16.8793 13.603C17.2257 13.603 17.5084 13.8172 17.6862 14.0087L20.435 16.753C20.9821 17.3 20.9775 17.8927 20.4213 18.4716C20.2299 18.6768 20.0293 18.8728 19.815 19.0779C19.4959 19.3879 19.1632 19.707 18.8623 20.0671C18.338 20.6324 17.7135 20.8968 16.9066 20.8968C16.8291 20.8968 16.7471 20.8923 16.6696 20.8877C15.1743 20.792 13.784 20.2085 12.74 19.7116C9.90456 18.3394 7.41554 16.3929 5.35048 13.9221C3.6501 11.8753 2.50588 9.96975 1.74915 7.92748C1.27961 6.67385 1.10182 5.66639 1.17476 4.7501Z" fill="currentColor"/>
</svg>
