<svg width="10" height="10" viewBox="0 0 10 10" xmlns="http://www.w3.org/2000/svg">
<path d="M5 0C5.13718 0 5.26874 0.0544949 5.36574 0.151496C5.46275 0.248498 5.51724 0.38006 5.51724 0.517241V4.48276H9.48276C9.61994 4.48276 9.7515 4.53725 9.8485 4.63426C9.94551 4.73126 10 4.86282 10 5C10 5.13718 9.94551 5.26874 9.8485 5.36574C9.7515 5.46275 9.61994 5.51724 9.48276 5.51724H5.51724V9.48276C5.51724 9.61994 5.46275 9.7515 5.36574 9.8485C5.26874 9.94551 5.13718 10 5 10C4.86282 10 4.73126 9.94551 4.63426 9.8485C4.53725 9.7515 4.48276 9.61994 4.48276 9.48276V5.51724H0.517241C0.38006 5.51724 0.248498 5.46275 0.151496 5.36574C0.0544949 5.26874 0 5.13718 0 5C0 4.86282 0.0544949 4.73126 0.151496 4.63426C0.248498 4.53725 0.38006 4.48276 0.517241 4.48276H4.48276V0.517241C4.48276 0.38006 4.53725 0.248498 4.63426 0.151496C4.73126 0.0544949 4.86282 0 5 0Z" fill="currentColor"/>
</svg>
