<svg width="18" height="18" viewBox="0 0 18 18" xmlns="http://www.w3.org/2000/svg">
<path d="M13.1916 6.55778C14.4874 7.36763 15.1353 7.77255 15.3575 8.29098C15.5515 8.74376 15.5515 9.25627 15.3575 9.70905C15.1353 10.2275 14.4874 10.6324 13.1916 11.4423L7.10562 15.246C5.66746 16.1449 4.94839 16.5943 4.35498 16.5466C3.83773 16.505 3.36358 16.2422 3.05418 15.8256C2.69922 15.3477 2.69922 14.4997 2.69922 12.8038V5.19625C2.69922 3.50031 2.69922 2.65234 3.05418 2.17442C3.36358 1.75783 3.83773 1.49503 4.35498 1.45345C4.94839 1.40575 5.66746 1.85517 7.10562 2.75401L13.1916 6.55778Z" stroke="currentColor" stroke-width="1.5" stroke-linejoin="round" fill="none"/>
</svg>
