<svg width="30" height="30" viewBox="0 0 30 30" xmlns="http://www.w3.org/2000/svg">
<path d="M15 0C12.0333 0 9.13319 0.879735 6.66645 2.52796C4.19972 4.17618 2.27713 6.51886 1.14181 9.25975C0.00649932 12.0006 -0.290551 15.0166 0.288228 17.9264C0.867006 20.8361 2.29562 23.5088 4.3934 25.6066C6.49119 27.7044 9.16394 29.133 12.0737 29.7118C14.9834 30.2906 17.9994 29.9935 20.7403 28.8582C23.4811 27.7229 25.8238 25.8003 27.472 23.3336C29.1203 20.8668 30 17.9667 30 15C30 11.0218 28.4197 7.20644 25.6066 4.3934C22.7936 1.58035 18.9783 0 15 0ZM23.6455 20.8705C23.2091 20.9318 21.075 20.8705 20.9642 20.8705C20.4125 20.8777 19.8802 20.667 19.483 20.2841C19.033 19.8494 18.6307 19.3722 18.1909 18.9205C18.0613 18.7818 17.9205 18.6541 17.7699 18.5386C17.4188 18.2693 17.071 18.329 16.9057 18.7449C16.7766 19.1925 16.6865 19.6505 16.6364 20.1136C16.6074 20.533 16.3415 20.7955 15.871 20.8244C15.5796 20.8398 15.2881 20.8466 15 20.8381C13.9501 20.8323 12.9165 20.577 11.9847 20.0932C10.9761 19.5318 10.0973 18.7639 9.40569 17.8398C8.26876 16.3875 7.36023 14.792 6.54887 13.1472C6.50626 13.0636 5.67444 11.2943 5.65398 11.2108C5.57898 10.933 5.65398 10.6653 5.8841 10.5716C6.03069 10.5153 8.7716 10.5716 8.81762 10.5716C9.02154 10.5702 9.22061 10.6337 9.38607 10.7529C9.55153 10.8721 9.67481 11.0408 9.73807 11.2347C10.2452 12.5318 10.9389 13.748 11.7972 14.8449C11.9174 14.991 12.058 15.119 12.2148 15.225C12.4381 15.3784 12.6494 15.3256 12.7415 15.0665C12.8507 14.7094 12.9148 14.34 12.9324 13.967C12.9477 13.2273 12.9324 12.7415 12.8915 12.0017C12.8642 11.5278 12.6972 11.1136 11.9983 10.979C11.7835 10.9398 11.7648 10.7625 11.9028 10.5852C12.1909 10.2188 12.5847 10.1591 13.0261 10.1369C13.6841 10.0994 14.3421 10.125 15 10.1369H15.1432C15.4295 10.1359 15.7152 10.165 15.9955 10.2239C16.1613 10.2577 16.3117 10.3442 16.4244 10.4704C16.5371 10.5966 16.6061 10.7559 16.621 10.9244C16.6549 11.1111 16.6692 11.3007 16.6636 11.4903C16.6466 12.2966 16.6074 13.1045 16.5989 13.9108C16.5909 14.2307 16.6201 14.5504 16.6858 14.8636C16.7796 15.2932 17.0744 15.4006 17.3676 15.0903C17.7476 14.6902 18.0958 14.2611 18.4091 13.8068C18.9644 12.9789 19.422 12.0894 19.7727 11.1562C19.9636 10.6773 20.1136 10.5716 20.625 10.5716H23.533C23.7059 10.5686 23.8783 10.5915 24.0443 10.6398C24.1031 10.6552 24.1581 10.6826 24.2058 10.7203C24.2535 10.758 24.2929 10.8051 24.3215 10.8587C24.3501 10.9123 24.3674 10.9712 24.3722 11.0318C24.377 11.0924 24.3693 11.1533 24.3494 11.2108C24.2063 11.8483 23.8619 12.392 23.4972 12.9153C22.9057 13.7523 22.2818 14.5688 21.6767 15.3955C21.6039 15.5023 21.5373 15.6133 21.4773 15.7278C21.2489 16.1403 21.2659 16.3705 21.5966 16.7114C22.125 17.2551 22.6892 17.7631 23.1989 18.3222C23.5727 18.7289 23.9103 19.1675 24.208 19.633C24.571 20.2193 24.3409 20.7716 23.6455 20.8705Z" fill="currentColor"/>
</svg>
