<svg width="29" height="30" viewBox="0 0 29 30" xmlns="http://www.w3.org/2000/svg">
<path d="M12.6953 17.8099L17.412 14.9997L12.6953 12.1895V17.8099Z" fill="currentColor"/>
<path d="M14.5 0C6.4931 0 0 6.717 0 15C0 23.283 6.4931 30 14.5 30C22.5069 30 29 23.283 29 15C29 6.717 22.5069 0 14.5 0ZM23.5603 15.0153C23.5603 15.0153 23.5603 18.0574 23.1873 19.5243C22.9782 20.3272 22.3662 20.9603 21.59 21.1764C20.172 21.5625 14.5 21.5625 14.5 21.5625C14.5 21.5625 8.8428 21.5625 7.40997 21.161C6.63381 20.945 6.02183 20.3117 5.81274 19.5087C5.43949 18.0574 5.43949 15 5.43949 15C5.43949 15 5.43949 11.9582 5.81274 10.4913C6.02161 9.68834 6.64864 9.03969 7.40997 8.82362C8.82797 8.4375 14.5 8.4375 14.5 8.4375C14.5 8.4375 20.172 8.4375 21.59 8.83896C22.3662 9.05502 22.9782 9.68834 23.1873 10.4913C23.5753 11.9582 23.5603 15.0153 23.5603 15.0153Z" fill="currentColor"/>
</svg>
