<svg width="28" height="28" viewBox="0 0 28 28" fill="none" xmlns="http://www.w3.org/2000/svg">
<g id="file">
<path id="Icon" d="M22.1663 10.5V20.7667C22.1663 22.0735 22.1663 22.7269 21.912 23.226C21.6883 23.665 21.3314 24.022 20.8923 24.2457C20.3932 24.5 19.7398 24.5 18.433 24.5H9.56634C8.25955 24.5 7.60616 24.5 7.10703 24.2457C6.66799 24.022 6.31103 23.665 6.08733 23.226C5.83301 22.7269 5.83301 22.0735 5.83301 20.7667V7.23333C5.83301 5.92654 5.83301 5.27315 6.08733 4.77402C6.31103 4.33498 6.66799 3.97802 7.10703 3.75432C7.60616 3.5 8.25955 3.5 9.56634 3.5H15.1663M22.1663 10.5L15.1663 3.5M22.1663 10.5H16.333C15.6887 10.5 15.1663 9.97767 15.1663 9.33333V3.5" stroke="url(#paint0_linear_387_9912)" stroke-width="2" stroke-linecap="round" stroke-linejoin="round"/>
</g>
<defs>
<linearGradient id="paint0_linear_387_9912" x1="6.03717" y1="12.6875" x2="24.056" y2="13.205" gradientUnits="userSpaceOnUse">
<stop stop-color="#1DA038"/>
<stop offset="1" stop-color="#47C060"/>
</linearGradient>
</defs>
</svg>
