<svg width="13" height="14" viewBox="0 0 13 14" fill="none" xmlns="http://www.w3.org/2000/svg">
<path d="M12.9193 1.71996C12.9193 1.16768 12.4716 0.719961 11.9193 0.71996L2.91932 0.719961C2.36704 0.719961 1.91932 1.16768 1.91932 1.71996C1.91932 2.27225 2.36704 2.71996 2.91932 2.71996L10.9193 2.71996L10.9193 10.72C10.9193 11.2722 11.367 11.72 11.9193 11.72C12.4716 11.72 12.9193 11.2722 12.9193 10.72L12.9193 1.71996ZM1.42586 13.6276L12.6264 2.42707L11.2122 1.01285L0.0116432 12.2134L1.42586 13.6276Z" fill="white"/>
<path d="M12.9193 1.71996C12.9193 1.16768 12.4716 0.719961 11.9193 0.71996L2.91932 0.719961C2.36704 0.719961 1.91932 1.16768 1.91932 1.71996C1.91932 2.27225 2.36704 2.71996 2.91932 2.71996L10.9193 2.71996L10.9193 10.72C10.9193 11.2722 11.367 11.72 11.9193 11.72C12.4716 11.72 12.9193 11.2722 12.9193 10.72L12.9193 1.71996ZM1.42586 13.6276L12.6264 2.42707L11.2122 1.01285L0.0116432 12.2134L1.42586 13.6276Z" fill="url(#paint0_linear_602_1598)"/>
<defs>
<linearGradient id="paint0_linear_602_1598" x1="1.16812" y1="13.0899" x2="15.772" y2="9.26453" gradientUnits="userSpaceOnUse">
<stop stop-color="#1DA038"/>
<stop offset="1" stop-color="#47C060"/>
</linearGradient>
</defs>
</svg>
