<svg width="25" height="25" viewBox="0 0 25 25" fill="none" xmlns="http://www.w3.org/2000/svg">
<path d="M12.5 3.12502C10.5661 3.12502 8.71147 3.89325 7.34401 5.2607C5.97656 6.62815 5.20833 8.48282 5.20833 10.4167C5.20833 13.3979 7.06458 16.274 9.10208 18.5021C10.1445 19.6366 11.2812 20.6806 12.5 21.6229C13.7188 20.6813 14.8555 19.638 15.8979 18.5042C17.9354 16.274 19.7917 13.399 19.7917 10.4167C19.7917 8.48282 19.0234 6.62815 17.656 5.2607C16.2885 3.89325 14.4339 3.12502 12.5 3.12502ZM12.5 24.1813L11.9094 23.775L11.9062 23.7729L11.9 23.7677L11.8792 23.7531L11.801 23.6979C11.3697 23.3844 10.948 23.0579 10.5365 22.7188C9.48164 21.8523 8.4886 20.9132 7.56458 19.9084C5.43542 17.5792 3.125 14.2052 3.125 10.4167C3.125 7.93028 4.11272 5.54571 5.87087 3.78756C7.62903 2.02941 10.0136 1.04169 12.5 1.04169C14.9864 1.04169 17.371 2.02941 19.1291 3.78756C20.8873 5.54571 21.875 7.93028 21.875 10.4167C21.875 14.2052 19.5646 17.5802 17.4354 19.9084C16.229 21.2205 14.9055 22.4199 13.4812 23.4917C13.3626 23.5804 13.2428 23.6675 13.1219 23.7531L13.1 23.7677L13.0937 23.7729L13.0917 23.774L12.5 24.1802V24.1813ZM12.5 8.33335C11.9475 8.33335 11.4176 8.55285 11.0269 8.94355C10.6362 9.33425 10.4167 9.86415 10.4167 10.4167C10.4167 10.9692 10.6362 11.4991 11.0269 11.8898C11.4176 12.2805 11.9475 12.5 12.5 12.5C13.0525 12.5 13.5824 12.2805 13.9731 11.8898C14.3638 11.4991 14.5833 10.9692 14.5833 10.4167C14.5833 9.86415 14.3638 9.33425 13.9731 8.94355C13.5824 8.55285 13.0525 8.33335 12.5 8.33335ZM8.33333 10.4167C8.33333 9.31162 8.77232 8.25181 9.55372 7.47041C10.3351 6.68901 11.3949 6.25002 12.5 6.25002C13.6051 6.25002 14.6649 6.68901 15.4463 7.47041C16.2277 8.25181 16.6667 9.31162 16.6667 10.4167C16.6667 11.5218 16.2277 12.5816 15.4463 13.363C14.6649 14.1444 13.6051 14.5834 12.5 14.5834C11.3949 14.5834 10.3351 14.1444 9.55372 13.363C8.77232 12.5816 8.33333 11.5218 8.33333 10.4167Z" fill="url(#paint0_linear_370_3815)"/>
<defs>
<linearGradient id="paint0_linear_370_3815" x1="22.3194" y1="12.6106" x2="0.755746" y2="12.6106" gradientUnits="userSpaceOnUse">
<stop stop-color="#1DA038"/>
<stop offset="1" stop-color="#1DA038" stop-opacity="0.15"/>
</linearGradient>
</defs>
</svg>
