<svg width="25" height="25" viewBox="0 0 25 25" fill="none" xmlns="http://www.w3.org/2000/svg">
<g clip-path="url(#clip0_370_3819)">
<path fill-rule="evenodd" clip-rule="evenodd" d="M8.51295 16.4886C12.5182 20.4938 16.2296 20.9323 17.3192 20.9729C18.6359 21.0208 19.9796 19.9458 20.5609 18.8448C19.6338 17.7573 18.4265 16.9136 17.1036 15.999C16.3244 16.7781 15.364 18.2261 14.0827 17.7073C13.3546 17.4146 11.5567 16.5865 9.98586 15.0146C8.41399 13.4438 7.58691 11.6458 7.29211 10.9188C6.77336 9.63647 8.22545 8.67293 9.00566 7.89272C8.09107 6.54897 7.26191 5.31043 6.17649 4.43022C5.05982 5.01355 3.97857 6.34689 4.02753 7.68126C4.06816 8.77084 4.5067 12.4823 8.51295 16.4886ZM17.2421 23.0542C15.7421 22.999 11.4911 22.4125 7.03899 17.9604C2.58795 13.5094 2.00149 9.25939 1.94524 7.75834C1.86191 5.47084 3.61399 3.24897 5.63795 2.38126C5.88167 2.27602 6.14857 2.23595 6.41246 2.26499C6.67634 2.29402 6.92814 2.39117 7.14316 2.54689C8.81815 3.76876 9.97336 5.6198 10.9661 7.0698C11.1726 7.37132 11.2672 7.73553 11.2335 8.09943C11.1998 8.46333 11.04 8.80401 10.7817 9.06251L9.3692 10.4761C9.69732 11.2 10.365 12.4479 11.4588 13.5417C12.5525 14.6354 13.8004 15.3031 14.5254 15.6313L15.9369 14.2188C16.1964 13.9599 16.5385 13.8003 16.9036 13.7677C17.2687 13.7352 17.6336 13.8318 17.9348 14.0406C19.414 15.0656 21.1515 16.2042 22.4182 17.8261C22.5865 18.0426 22.6936 18.3004 22.7282 18.5726C22.7629 18.8447 22.7238 19.1211 22.615 19.3729C21.7432 21.4073 19.5369 23.1386 17.2421 23.0542Z" fill="url(#paint0_linear_370_3819)"/>
</g>
<defs>
<linearGradient id="paint0_linear_370_3819" x1="23.2334" y1="12.6562" x2="-0.685672" y2="12.6562" gradientUnits="userSpaceOnUse">
<stop stop-color="#1DA038"/>
<stop offset="1" stop-color="#1DA038" stop-opacity="0.15"/>
</linearGradient>
<clipPath id="clip0_370_3819">
<rect width="25" height="25" fill="white"/>
</clipPath>
</defs>
</svg>
