<svg width="130" height="44" viewBox="0 0 130 44" fill="none" xmlns="http://www.w3.org/2000/svg">
<g id="Logo fin 1" clip-path="url(#clip0_602_2162)">
<g id="Group">
<g id="Group_2">
<g id="Group_3">
<g id="Group_4">
<g id="Group_5">
<g id="Group_6">
<path id="Vector" d="M20.7018 33.5071V20.2437L16.5362 21.8183V33.5071C16.5362 36.6564 13.8854 39.2606 10.5403 39.2606C7.25839 39.2606 4.54446 36.6564 4.54446 33.5071V26.3L0.378906 27.8747V33.5071C0.378906 38.8972 4.92315 43.2578 10.5403 43.2578C16.1575 43.2578 20.7018 38.8972 20.7018 33.5071ZM20.7018 16.3071V10.6141C20.7018 5.22397 16.1575 0.863403 10.5403 0.863403C4.98627 0.863403 0.378906 5.22397 0.378906 10.6141V23.9381L4.54446 22.3634V10.6141C4.54446 7.46481 7.19527 4.86059 10.5403 4.86059C13.8223 4.86059 16.5362 7.40425 16.5362 10.6141V17.8817L20.7018 16.3071Z" fill="#009640"/>
</g>
</g>
<g id="Group_7">
<g id="Group_8">
<path id="Vector_2" d="M10.5398 13.5817C11.6901 13.5817 12.6226 12.6868 12.6226 11.5831C12.6226 10.4793 11.6901 9.58447 10.5398 9.58447C9.38953 9.58447 8.45703 10.4793 8.45703 11.5831C8.45703 12.6868 9.38953 13.5817 10.5398 13.5817Z" fill="#009640"/>
</g>
<g id="Group_9">
<path id="Vector_3" d="M10.5398 34.5972C9.40376 34.5972 8.45703 33.6888 8.45703 32.5986V18.5479C8.45703 17.4578 9.40376 16.5493 10.5398 16.5493C11.6759 16.5493 12.6226 17.4578 12.6226 18.5479V32.5986C12.6226 33.6888 11.739 34.5972 10.5398 34.5972Z" fill="#009640"/>
</g>
</g>
</g>
<g id="Group_10">
<g id="Group_11">
<g id="Group_12">
<g id="Group_13">
<path id="Vector_4" d="M34.9664 16.1254C35.9762 16.1254 36.7336 16.9127 36.7336 17.8212V30.6H33.1992V17.8212C33.1992 16.9127 33.9566 16.1254 34.9664 16.1254Z" fill="white"/>
<path id="Vector_5" d="M63.6815 17.5183C64.6282 18.7296 65.1332 20.4859 65.1332 22.7873V30.6H61.5988V22.9085C61.5988 21.5155 61.3463 20.4859 60.7783 19.8197C60.2102 19.1535 59.4529 18.8507 58.443 18.8507C57.8119 18.8507 57.1807 19.0324 56.6758 19.3958C56.1078 19.7592 55.666 20.3042 55.3504 20.9704C55.0349 21.6366 54.8455 22.4239 54.8455 23.2113V30.6H51.3111V22.9085C51.3111 21.5155 51.0586 20.4859 50.4906 19.8197C49.9226 19.1535 49.1652 18.8507 48.1554 18.8507C47.5242 18.8507 46.8931 19.0324 46.3882 19.3958C45.8201 19.7592 45.3783 20.3042 45.0628 20.9704C44.7472 21.6366 44.5579 22.4239 44.5579 23.2113V30.6H41.0234V16.1253H44.3685L44.4316 18.3662C44.8103 17.5789 45.4414 16.9127 46.325 16.4282C47.2087 15.9437 48.1554 15.7014 49.2283 15.7014C50.4906 15.7014 51.5004 16.0042 52.384 16.5493C53.2045 17.0944 53.8357 17.9423 54.2775 18.9718C54.9086 17.8817 55.666 17.0338 56.5496 16.4887C57.4332 15.9437 58.443 15.7014 59.516 15.7014C61.2832 15.7014 62.7348 16.307 63.6815 17.5183Z" fill="white"/>
<path id="Vector_6" d="M74.7305 30.2972C73.7837 29.8127 73.0895 29.0859 72.5215 28.1775V30.6H69.1133V12.431C69.1133 11.462 69.9338 10.7352 70.8805 10.7352C71.8903 10.7352 72.6477 11.5226 72.6477 12.431V16.5493L72.5846 18.4268C73.0895 17.5789 73.7837 16.9127 74.7305 16.3676C75.6141 15.8831 76.6239 15.5803 77.6968 15.5803C79.0854 15.5803 80.3477 15.9437 81.4837 16.6099C82.6198 17.2761 83.5034 18.2451 84.1345 19.3958C84.7657 20.5465 85.0812 21.8789 85.0812 23.2719C85.0812 24.6648 84.7657 25.9972 84.1345 27.1479C83.5034 28.2986 82.6198 29.2676 81.4837 29.9338C80.3477 30.6 79.1485 30.9634 77.76 30.9634C76.687 31.0845 75.6772 30.7817 74.7305 30.2972ZM79.3378 27.3902C80.0321 27.0268 80.537 26.4817 80.9788 25.8155C81.3575 25.1493 81.6099 24.3014 81.6099 23.393C81.6099 22.4845 81.4206 21.6972 81.0419 21.031C80.6632 20.3648 80.0952 19.8197 79.4009 19.4564C78.7067 19.093 77.9493 18.9113 77.1288 18.9113C76.3083 18.9113 75.6141 19.093 74.9198 19.5169C74.2256 19.9409 73.7206 20.4859 73.2788 21.1521C72.9002 21.8183 72.7108 22.6057 72.7108 23.4535C72.7108 24.3014 72.9002 25.0887 73.342 25.8155C73.7206 26.4817 74.2887 27.0268 74.9829 27.4507C75.6772 27.8747 76.4345 28.0564 77.1919 28.0564C77.9493 27.9352 78.6436 27.7535 79.3378 27.3902Z" fill="white"/>
<path id="Vector_7" d="M90.3766 16.1254C91.3864 16.1254 92.1438 16.9127 92.1438 17.8212V30.6H88.6094V17.8212C88.6094 16.9127 89.3668 16.1254 90.3766 16.1254Z" fill="white"/>
<path id="Vector_8" d="M98.7141 30.0549C97.6412 29.3887 96.7575 28.4197 96.1264 27.269C95.4953 26.1183 95.1797 24.7859 95.1797 23.393C95.1797 22 95.4953 20.7282 96.1264 19.5169C96.7575 18.3662 97.578 17.3972 98.7141 16.731C99.787 16.0648 100.986 15.7014 102.312 15.7014C103.574 15.7014 104.647 15.9437 105.594 16.4887C106.54 16.9732 107.298 17.7 107.739 18.6085V17.7606C107.739 16.8521 108.497 16.1253 109.444 16.1253C110.39 16.1253 111.148 16.8521 111.148 17.7606V30.6606H107.739V28.238C107.235 29.1465 106.54 29.8732 105.594 30.3577C104.647 30.8423 103.574 31.1451 102.312 31.1451C100.986 31.0845 99.787 30.7211 98.7141 30.0549ZM105.467 27.3296C106.162 26.9056 106.667 26.3606 107.045 25.6944C107.424 25.0282 107.613 24.2408 107.613 23.393C107.613 22.5451 107.424 21.8183 107.045 21.0916C106.667 20.4254 106.099 19.8803 105.467 19.4563C104.773 19.0324 104.016 18.8507 103.258 18.8507C102.438 18.8507 101.68 19.0324 101.049 19.3958C100.355 19.7592 99.8502 20.3042 99.4715 20.9704C99.0928 21.6366 98.9035 22.424 98.9035 23.3324C98.9035 24.2409 99.0928 25.0282 99.5346 25.7549C99.9133 26.4211 100.481 26.9662 101.176 27.3296C101.87 27.693 102.564 27.8747 103.385 27.8747C104.016 27.9352 104.773 27.693 105.467 27.3296Z" fill="white"/>
<path id="Vector_9" d="M118.72 17.7606V18.3662C119.162 17.5789 119.856 16.9127 120.74 16.4282C121.686 15.9437 122.696 15.7014 123.832 15.7014C125.852 15.7014 127.367 16.307 128.377 17.5183C129.386 18.7296 129.891 20.4859 129.891 22.7873V30.6H126.357V22.9085C126.357 21.5155 126.041 20.4859 125.473 19.8197C124.842 19.1535 124.022 18.8507 122.886 18.8507C122.191 18.8507 121.497 19.0324 120.929 19.3352C120.298 19.6986 119.856 20.1831 119.477 20.8493C119.099 21.5155 118.909 22.3028 118.909 23.2113V30.6H115.375V17.7C115.375 16.7915 116.132 16.0648 117.079 16.0648C117.963 16.1254 118.72 16.8521 118.72 17.7606Z" fill="white"/>
</g>
</g>
</g>
</g>
</g>
</g>
<path id="Vector_10" d="M36.7336 10.9775H33.1992V12.6733C33.1992 13.6423 34.0197 14.3691 34.9664 14.3691C35.9762 14.3691 36.7336 13.5818 36.7336 12.6733V10.9775Z" fill="white"/>
<path id="Vector_11" d="M92.1477 10.9774H88.6133V12.6732C88.6133 13.6422 89.4338 14.369 90.3805 14.369C91.3903 14.369 92.1477 13.5817 92.1477 12.6732V10.9774Z" fill="white"/>
</g>
</g>
<defs>
<clipPath id="clip0_602_2162">
<rect width="130" height="43" fill="white" transform="translate(0 0.5)"/>
</clipPath>
</defs>
</svg>
