<svg width="0" height="0" class="hidden">
  <symbol xmlns="http://www.w3.org/2000/svg" viewBox="0 0 12 22" id="ic_arr_hor">
    <path d="M11 1.5L1.76316 10.275C1.34816 10.6693 1.34816 11.3307 1.76316 11.725L11 20.5" stroke="currentColor" stroke-width="2" stroke-linecap="round" fill="none"></path>
  </symbol>
  <symbol xmlns="http://www.w3.org/2000/svg" viewBox="0 0 7 7" id="ic_arr_ver">
    <path d="M4.19282 5.8C3.8849 6.33333 3.1151 6.33333 2.80718 5.8L0.295705 1.45C-0.0122151 0.916666 0.372686 0.25 0.988526 0.25L6.01147 0.250001C6.62732 0.250001 7.01221 0.916667 6.70429 1.45L4.19282 5.8Z" fill="currentColor"></path>
  </symbol>
  <symbol xmlns="http://www.w3.org/2000/svg" viewBox="0 0 20 15" id="ic_arrow_hor">
    <path d="M19.5011 8.20717C19.8916 7.81664 19.8916 7.18348 19.5011 6.79295L13.1371 0.428993C12.7466 0.0384688 12.1134 0.0384688 11.7229 0.428993C11.3324 0.819518 11.3324 1.45268 11.7229 1.84321L17.3797 7.50006L11.7229 13.1569C11.3324 13.5474 11.3324 14.1806 11.7229 14.5711C12.1134 14.9617 12.7466 14.9617 13.1371 14.5711L19.5011 8.20717ZM0.793945 8.50006L18.7939 8.50006V6.50006L0.793945 6.50006V8.50006Z" fill="currentColor"></path>
  </symbol>
  <symbol xmlns="http://www.w3.org/2000/svg" viewBox="0 0 10 5" id="ic_bread_sep">
    <path d="M9 0.5V4.5" stroke="currentColor" stroke-linecap="round" fill="none"></path>
    <path d="M5 0.5L5 4.5" stroke="currentColor" stroke-linecap="round" fill="none"></path>
    <path d="M1 0.5L1 4.5" stroke="currentColor" stroke-linecap="round" fill="none"></path>
  </symbol>
  <symbol xmlns="http://www.w3.org/2000/svg" viewBox="0 0 22 23" id="ic_cart">
    <path d="M19.8016 9.20005L18.1675 17.7418C17.9659 18.7955 17.8651 19.3224 17.602 19.7165C17.3699 20.0641 17.0505 20.3378 16.679 20.5076C16.2577 20.7001 15.7438 20.7001 14.7159 20.7001H7.28727C6.25935 20.7001 5.74539 20.7001 5.32412 20.5076C4.95263 20.3378 4.63323 20.0641 4.40117 19.7165C4.13802 19.3224 4.03722 18.7955 3.83563 17.7418L2.20156 9.20005M19.8016 9.20005H17.6016M19.8016 9.20005H20.9016M2.20156 9.20005H1.10156M2.20156 9.20005H4.40156M4.40156 9.20005H17.6016M4.40156 9.20005L7.70156 2.30005M17.6016 9.20005L14.3016 2.30005M7.70156 12.65V16.1M11.0016 12.65V16.1M14.3016 12.65V16.1" stroke="currentColor" stroke-width="1.5" stroke-linecap="round" stroke-linejoin="round" fill="none"></path>
  </symbol>
  <symbol xmlns="http://www.w3.org/2000/svg" viewBox="0 0 24 24" id="ic_close">
    <path d="M23.2929 3.10711C23.6834 2.71658 23.6834 2.08342 23.2929 1.69289L22.3071 0.707107C21.9166 0.316583 21.2834 0.316582 20.8929 0.707107L12 9.6L3.10711 0.707107C2.71658 0.316583 2.08342 0.316583 1.69289 0.707107L0.707107 1.69289C0.316583 2.08342 0.316582 2.71658 0.707107 3.10711L9.6 12L0.707107 20.8929C0.316583 21.2834 0.316582 21.9166 0.707107 22.3071L1.69289 23.2929C2.08342 23.6834 2.71658 23.6834 3.10711 23.2929L12 14.4L20.8929 23.2929C21.2834 23.6834 21.9166 23.6834 22.3071 23.2929L23.2929 22.3071C23.6834 21.9166 23.6834 21.2834 23.2929 20.8929L14.4 12L23.2929 3.10711Z" fill="currentColor"></path>
  </symbol>
  <symbol xmlns="http://www.w3.org/2000/svg" viewBox="0 0 20 20" id="ic_delete">
    <path d="M2 4H18M14 4L13.7294 3.18807C13.4671 2.40125 13.3359 2.00784 13.0927 1.71698C12.8779 1.46013 12.6021 1.26132 12.2905 1.13878C11.9376 1 11.523 1 10.6936 1H9.30643C8.47705 1 8.06236 1 7.70951 1.13878C7.39792 1.26132 7.12208 1.46013 6.90729 1.71698C6.66405 2.00784 6.53292 2.40125 6.27064 3.18807L6 4M16 4V14.2C16 15.8802 16 16.7202 15.673 17.362C15.3854 17.9265 14.9265 18.3854 14.362 18.673C13.7202 19 12.8802 19 11.2 19H8.8C7.11984 19 6.27976 19 5.63803 18.673C5.07354 18.3854 4.6146 17.9265 4.32698 17.362C4 16.7202 4 15.8802 4 14.2V4M12 8V15M8 8V15" stroke="currentColor" stroke-linecap="round" stroke-linejoin="round" fill="none"></path>
  </symbol>
  <symbol xmlns="http://www.w3.org/2000/svg" viewBox="0 0 24 24" id="ic_file">
    <path d="M22.9995 7C22.9995 8.60275 22.3755 10.1095 21.2423 11.2428L10.4348 22.1785C9.55579 23.0575 8.40154 23.497 7.24804 23.497C6.09604 23.497 4.94404 23.0583 4.06729 22.1815C2.31304 20.4265 2.31304 17.572 4.06729 15.8178L11.8748 8.0545C13.047 6.88975 14.91 6.8515 16.0298 7.96975C16.5765 8.5165 16.8645 9.2545 16.8413 10.0488C16.818 10.8258 16.4978 11.5623 15.939 12.121L8.52979 19.5303C8.23654 19.8235 7.76254 19.8235 7.46929 19.5303C7.17604 19.237 7.17604 18.763 7.46929 18.4698L14.8785 11.0605C15.1658 10.7733 15.3308 10.3983 15.342 10.0045C15.3533 9.628 15.2205 9.2815 14.9693 9.03025C14.433 8.49625 13.5195 8.5345 12.933 9.118L5.12629 16.8798C3.95854 18.0483 3.95854 19.9518 5.12779 21.121C6.29779 22.2903 8.20054 22.2903 9.37054 21.121L20.178 10.1853C21.0315 9.33175 21.4995 8.20225 21.4995 7C21.4995 5.79775 21.0315 4.66825 20.1818 3.8185C19.3313 2.968 18.2018 2.5 16.9995 2.5C15.7973 2.5 14.6678 2.968 13.8173 3.8185L3.27829 14.2825C2.98354 14.5743 2.50954 14.5728 2.21779 14.278C1.92604 13.984 1.92754 13.51 2.22154 13.2175L12.759 2.75575C13.89 1.624 15.3968 1 16.9995 1C18.6023 1 20.109 1.624 21.2423 2.758C22.3755 3.8905 22.9995 5.39725 22.9995 7Z" fill="currentColor"></path>
  </symbol>
  <symbol xmlns="http://www.w3.org/2000/svg" viewBox="0 0 30 30" id="ic_hh">
    <path d="M15 30C23.2844 30 30 23.2844 30 15C30 6.71562 23.2844 0 15 0C6.71562 0 0 6.71562 0 15C0 23.2844 6.71562 30 15 30Z" fill="currentColor"></path>
    <path d="M8.53031 8.23047V13.333C9.30719 12.4067 10.2384 11.9405 11.3184 11.9405C11.8747 11.9405 12.3728 12.0467 12.8197 12.2573C13.2678 12.4667 13.6028 12.7355 13.8291 13.0617C14.0566 13.3911 14.2103 13.7517 14.2934 14.1492C14.3759 14.5448 14.4172 15.1605 14.4172 15.9955V21.4511H12.0034V16.5373C12.0034 15.5623 11.9597 14.9448 11.8678 14.6823C11.7817 14.4252 11.611 14.2049 11.3834 14.0573C11.1509 13.9005 10.8616 13.823 10.5122 13.823C10.1122 13.823 9.75344 13.923 9.44156 14.1217C9.12281 14.3217 8.89406 14.6205 8.74906 15.0198C8.60156 15.4198 8.52781 16.0105 8.53031 16.7923L8.52781 21.4511H6.11719V8.23047H8.53094M18.0347 8.23047V13.333C18.8122 12.4067 19.7428 11.9405 20.8222 11.9405C21.3766 11.9405 21.8784 12.0467 22.3259 12.2573C22.7722 12.4667 23.1072 12.7355 23.3322 13.0617C23.5593 13.3889 23.7173 13.7589 23.7966 14.1492C23.8797 14.5448 23.9209 15.1605 23.9209 15.9955V21.4511H21.5097V16.5373C21.5097 15.5623 21.4641 14.9448 21.3722 14.6823C21.2861 14.4248 21.1148 14.2044 20.8866 14.0573C20.6566 13.9005 20.3647 13.823 20.0153 13.823C19.6159 13.823 19.2572 13.923 18.9447 14.1217C18.6303 14.3217 18.4003 14.6205 18.2534 15.0198C18.1084 15.4198 18.0347 16.0105 18.0347 16.7923V21.4511H15.6241V8.23047H18.0347Z" fill="#363842"></path>
  </symbol>
  <symbol xmlns="http://www.w3.org/2000/svg" viewBox="0 0 25 16" id="ic_menu">
    <path d="M24.1111 0H0.888889C0.397969 0 0 0.397969 0 0.888889C0 1.37981 0.39797 1.77778 0.88889 1.77778H24.1111C24.602 1.77778 25 1.37981 25 0.888889C25 0.397969 24.602 0 24.1111 0Z" fill="currentColor"></path>
    <path d="M15.1825 14.2227H0.888889C0.397969 14.2227 0 14.6206 0 15.1115C0 15.6025 0.39797 16.0004 0.88889 16.0004H15.1825C15.6735 16.0004 16.0714 15.6025 16.0714 15.1115C16.0714 14.6206 15.6735 14.2227 15.1825 14.2227Z" fill="currentColor"></path>
    <path d="M24.1111 7.11133H0.888889C0.397969 7.11133 0 7.5093 0 8.00022C0 8.49114 0.39797 8.88911 0.88889 8.88911H24.1111C24.602 8.88911 25 8.49114 25 8.00022C25 7.5093 24.602 7.11133 24.1111 7.11133Z" fill="currentColor"></path>
  </symbol>
  <symbol xmlns="http://www.w3.org/2000/svg" viewBox="0 0 10 3" id="ic_minus">
    <path fill-rule="evenodd" clip-rule="evenodd" d="M0.517241 0.931035H4.48276H5.51724H9.48276C9.61994 0.931035 9.7515 0.990979 9.8485 1.09768C9.94551 1.20438 10 1.3491 10 1.5C10 1.6509 9.94551 1.79562 9.8485 1.90232C9.7515 2.00902 9.61994 2.06897 9.48276 2.06897H5.51724H4.48276H0.517241C0.38006 2.06897 0.248498 2.00902 0.151496 1.90232C0.0544949 1.79562 0 1.6509 0 1.5C0 1.3491 0.0544949 1.20438 0.151496 1.09768C0.248498 0.990979 0.38006 0.931035 0.517241 0.931035Z" fill="currentColor"></path>
  </symbol>
  <symbol xmlns="http://www.w3.org/2000/svg" viewBox="0 0 30 30" id="ic_mouse">
    <path d="M14.9767 0C10.1109 0 6.15234 3.95851 6.15234 8.82431V21.1757C6.15234 26.0415 10.1109 30 14.9767 30C19.8425 30 23.801 26.0415 23.801 21.1757V8.82431C23.801 3.95851 19.8425 0 14.9767 0ZM22.001 21.1757C22.001 25.0488 18.8498 28.2001 14.9767 28.2001C11.1035 28.2001 7.95227 25.0488 7.95227 21.1757V8.82431C7.95227 4.95117 11.1035 1.79993 14.9767 1.79993C18.8498 1.79993 22.001 4.95117 22.001 8.82431V21.1757Z" fill="currentColor"></path>
    <path d="M14.9781 5.96786C14.481 5.96786 14.0781 6.3707 14.0781 6.86783V11.0101C14.0781 11.507 14.481 11.9101 14.9781 11.9101C15.475 11.9101 15.8781 11.507 15.8781 11.0101V6.86783C15.8781 6.3707 15.4752 5.96786 14.9781 5.96786Z" fill="currentColor"></path>
  </symbol>
  <symbol xmlns="http://www.w3.org/2000/svg" viewBox="0 0 22 22" id="ic_phone">
    <path d="M4.48433 14.6241C6.65425 17.218 9.26635 19.2603 12.2477 20.7053C13.3828 21.2433 14.9008 21.8815 16.5921 21.9909C16.6969 21.9954 16.7972 22 16.9021 22C18.0372 22 18.9489 21.608 19.692 20.8011C19.6965 20.7965 19.7056 20.7874 19.7102 20.7783C19.9746 20.4592 20.2755 20.172 20.59 19.8666C20.8043 19.6614 21.0231 19.4472 21.2328 19.2283C22.2038 18.2163 22.2038 16.9308 21.2237 15.9507L18.4839 13.2109C18.0189 12.7277 17.4628 12.4724 16.8793 12.4724C16.2958 12.4724 15.7351 12.7277 15.2564 13.2064L13.6244 14.8384C13.474 14.7518 13.319 14.6743 13.1731 14.6013C12.9908 14.5102 12.8221 14.4235 12.6717 14.3278C11.1855 13.3842 9.83618 12.1533 8.54608 10.5715C7.8942 9.74637 7.45657 9.05346 7.15114 8.34687C7.57965 7.95939 7.98081 7.55367 8.3683 7.15707C8.50506 7.01575 8.64637 6.87443 8.78769 6.73311C9.28002 6.24078 9.54443 5.67095 9.54443 5.092C9.54443 4.51305 9.28458 3.94322 8.78769 3.45089L7.42922 2.09242C7.26966 1.93286 7.11923 1.77787 6.96423 1.61832C6.66336 1.30833 6.34882 0.989225 6.03883 0.702031C5.56929 0.241608 5.01769 0 4.43419 0C3.85524 0 3.29909 0.241608 2.81131 0.706589L1.10638 2.41152C0.486406 3.0315 0.13539 3.78367 0.062452 4.65437C-0.0241622 5.74389 0.176418 6.90178 0.696103 8.30128C1.49387 10.4666 2.69735 12.477 4.48433 14.6241ZM1.17476 4.7501C1.22946 4.1438 1.46195 3.6378 1.89958 3.20017L3.5954 1.50435C3.8598 1.24907 4.15155 1.11687 4.43419 1.11687C4.71227 1.11687 4.9949 1.24907 5.25474 1.51347C5.56017 1.7961 5.84737 2.09242 6.15736 2.40696C6.31235 2.56651 6.4719 2.72607 6.63145 2.89018L7.98993 4.24865C8.27256 4.53129 8.41844 4.81848 8.41844 5.10112C8.41844 5.38375 8.27256 5.67095 7.98993 5.95359C7.84861 6.0949 7.70729 6.24078 7.56598 6.3821C7.14202 6.81061 6.74542 7.21633 6.30779 7.60381C6.29867 7.61293 6.29411 7.61749 6.285 7.62661C5.90663 8.00497 5.96589 8.36511 6.05707 8.63862C6.06162 8.6523 6.06618 8.66142 6.07074 8.67509C6.42176 9.51844 6.90953 10.3208 7.67082 11.2781C9.03842 12.9648 10.4789 14.2731 12.0654 15.2806C12.2614 15.4082 12.4711 15.5085 12.6671 15.6088C12.8494 15.7 13.0181 15.7866 13.1685 15.8823C13.1868 15.8914 13.2005 15.9005 13.2187 15.9097C13.3691 15.9872 13.515 16.0236 13.6609 16.0236C14.0256 16.0236 14.2626 15.7911 14.3401 15.7136L16.045 14.0087C16.3094 13.7443 16.5966 13.603 16.8793 13.603C17.2257 13.603 17.5084 13.8172 17.6862 14.0087L20.435 16.753C20.9821 17.3 20.9775 17.8927 20.4213 18.4716C20.2299 18.6768 20.0293 18.8728 19.815 19.0779C19.4959 19.3879 19.1632 19.707 18.8623 20.0671C18.338 20.6324 17.7135 20.8968 16.9066 20.8968C16.8291 20.8968 16.7471 20.8923 16.6696 20.8877C15.1743 20.792 13.784 20.2085 12.74 19.7116C9.90456 18.3394 7.41554 16.3929 5.35048 13.9221C3.6501 11.8753 2.50588 9.96975 1.74915 7.92748C1.27961 6.67385 1.10182 5.66639 1.17476 4.7501Z" fill="currentColor"></path>
  </symbol>
  <symbol xmlns="http://www.w3.org/2000/svg" viewBox="0 0 24 24" id="ic_plus">
    <path d="M11.75 4.5C11.9489 4.5 12.1397 4.57902 12.2803 4.71967C12.421 4.86032 12.5 5.05109 12.5 5.25V11H18.25C18.4489 11 18.6397 11.079 18.7803 11.2197C18.921 11.3603 19 11.5511 19 11.75C19 11.9489 18.921 12.1397 18.7803 12.2803C18.6397 12.421 18.4489 12.5 18.25 12.5H12.5V18.25C12.5 18.4489 12.421 18.6397 12.2803 18.7803C12.1397 18.921 11.9489 19 11.75 19C11.5511 19 11.3603 18.921 11.2197 18.7803C11.079 18.6397 11 18.4489 11 18.25V12.5H5.25C5.05109 12.5 4.86032 12.421 4.71967 12.2803C4.57902 12.1397 4.5 11.9489 4.5 11.75C4.5 11.5511 4.57902 11.3603 4.71967 11.2197C4.86032 11.079 5.05109 11 5.25 11H11V5.25C11 5.05109 11.079 4.86032 11.2197 4.71967C11.3603 4.57902 11.5511 4.5 11.75 4.5Z" fill="currentColor"></path>
  </symbol>
  <symbol xmlns="http://www.w3.org/2000/svg" viewBox="0 0 10 10" id="ic_plus2">
    <path d="M5 0C5.13718 0 5.26874 0.0544949 5.36574 0.151496C5.46275 0.248498 5.51724 0.38006 5.51724 0.517241V4.48276H9.48276C9.61994 4.48276 9.7515 4.53725 9.8485 4.63426C9.94551 4.73126 10 4.86282 10 5C10 5.13718 9.94551 5.26874 9.8485 5.36574C9.7515 5.46275 9.61994 5.51724 9.48276 5.51724H5.51724V9.48276C5.51724 9.61994 5.46275 9.7515 5.36574 9.8485C5.26874 9.94551 5.13718 10 5 10C4.86282 10 4.73126 9.94551 4.63426 9.8485C4.53725 9.7515 4.48276 9.61994 4.48276 9.48276V5.51724H0.517241C0.38006 5.51724 0.248498 5.46275 0.151496 5.36574C0.0544949 5.26874 0 5.13718 0 5C0 4.86282 0.0544949 4.73126 0.151496 4.63426C0.248498 4.53725 0.38006 4.48276 0.517241 4.48276H4.48276V0.517241C4.48276 0.38006 4.53725 0.248498 4.63426 0.151496C4.73126 0.0544949 4.86282 0 5 0Z" fill="currentColor"></path>
  </symbol>
  <symbol xmlns="http://www.w3.org/2000/svg" viewBox="0 0 22 22" id="ic_search">
    <path d="M13.6813 13.6747L19.171 19.1715M15.5392 9.18417C15.5392 12.6942 12.6938 15.5397 9.18368 15.5397C5.6736 15.5397 2.82812 12.6942 2.82812 9.18417C2.82812 5.67409 5.6736 2.82861 9.18368 2.82861C12.6938 2.82861 15.5392 5.67409 15.5392 9.18417Z" stroke="currentColor" stroke-width="1.5" stroke-linecap="round" stroke-linejoin="round" fill="none"></path>
  </symbol>
  <symbol xmlns="http://www.w3.org/2000/svg" viewBox="0 0 18 18" id="ic_video">
    <path d="M13.1916 6.55778C14.4874 7.36763 15.1353 7.77255 15.3575 8.29098C15.5515 8.74376 15.5515 9.25627 15.3575 9.70905C15.1353 10.2275 14.4874 10.6324 13.1916 11.4423L7.10562 15.246C5.66746 16.1449 4.94839 16.5943 4.35498 16.5466C3.83773 16.505 3.36358 16.2422 3.05418 15.8256C2.69922 15.3477 2.69922 14.4997 2.69922 12.8038V5.19625C2.69922 3.50031 2.69922 2.65234 3.05418 2.17442C3.36358 1.75783 3.83773 1.49503 4.35498 1.45345C4.94839 1.40575 5.66746 1.85517 7.10562 2.75401L13.1916 6.55778Z" stroke="currentColor" stroke-width="1.5" stroke-linejoin="round" fill="none"></path>
  </symbol>
  <symbol xmlns="http://www.w3.org/2000/svg" viewBox="0 0 30 30" id="ic_vk">
    <path d="M15 0C12.0333 0 9.13319 0.879735 6.66645 2.52796C4.19972 4.17618 2.27713 6.51886 1.14181 9.25975C0.00649932 12.0006 -0.290551 15.0166 0.288228 17.9264C0.867006 20.8361 2.29562 23.5088 4.3934 25.6066C6.49119 27.7044 9.16394 29.133 12.0737 29.7118C14.9834 30.2906 17.9994 29.9935 20.7403 28.8582C23.4811 27.7229 25.8238 25.8003 27.472 23.3336C29.1203 20.8668 30 17.9667 30 15C30 11.0218 28.4197 7.20644 25.6066 4.3934C22.7936 1.58035 18.9783 0 15 0ZM23.6455 20.8705C23.2091 20.9318 21.075 20.8705 20.9642 20.8705C20.4125 20.8777 19.8802 20.667 19.483 20.2841C19.033 19.8494 18.6307 19.3722 18.1909 18.9205C18.0613 18.7818 17.9205 18.6541 17.7699 18.5386C17.4188 18.2693 17.071 18.329 16.9057 18.7449C16.7766 19.1925 16.6865 19.6505 16.6364 20.1136C16.6074 20.533 16.3415 20.7955 15.871 20.8244C15.5796 20.8398 15.2881 20.8466 15 20.8381C13.9501 20.8323 12.9165 20.577 11.9847 20.0932C10.9761 19.5318 10.0973 18.7639 9.40569 17.8398C8.26876 16.3875 7.36023 14.792 6.54887 13.1472C6.50626 13.0636 5.67444 11.2943 5.65398 11.2108C5.57898 10.933 5.65398 10.6653 5.8841 10.5716C6.03069 10.5153 8.7716 10.5716 8.81762 10.5716C9.02154 10.5702 9.22061 10.6337 9.38607 10.7529C9.55153 10.8721 9.67481 11.0408 9.73807 11.2347C10.2452 12.5318 10.9389 13.748 11.7972 14.8449C11.9174 14.991 12.058 15.119 12.2148 15.225C12.4381 15.3784 12.6494 15.3256 12.7415 15.0665C12.8507 14.7094 12.9148 14.34 12.9324 13.967C12.9477 13.2273 12.9324 12.7415 12.8915 12.0017C12.8642 11.5278 12.6972 11.1136 11.9983 10.979C11.7835 10.9398 11.7648 10.7625 11.9028 10.5852C12.1909 10.2188 12.5847 10.1591 13.0261 10.1369C13.6841 10.0994 14.3421 10.125 15 10.1369H15.1432C15.4295 10.1359 15.7152 10.165 15.9955 10.2239C16.1613 10.2577 16.3117 10.3442 16.4244 10.4704C16.5371 10.5966 16.6061 10.7559 16.621 10.9244C16.6549 11.1111 16.6692 11.3007 16.6636 11.4903C16.6466 12.2966 16.6074 13.1045 16.5989 13.9108C16.5909 14.2307 16.6201 14.5504 16.6858 14.8636C16.7796 15.2932 17.0744 15.4006 17.3676 15.0903C17.7476 14.6902 18.0958 14.2611 18.4091 13.8068C18.9644 12.9789 19.422 12.0894 19.7727 11.1562C19.9636 10.6773 20.1136 10.5716 20.625 10.5716H23.533C23.7059 10.5686 23.8783 10.5915 24.0443 10.6398C24.1031 10.6552 24.1581 10.6826 24.2058 10.7203C24.2535 10.758 24.2929 10.8051 24.3215 10.8587C24.3501 10.9123 24.3674 10.9712 24.3722 11.0318C24.377 11.0924 24.3693 11.1533 24.3494 11.2108C24.2063 11.8483 23.8619 12.392 23.4972 12.9153C22.9057 13.7523 22.2818 14.5688 21.6767 15.3955C21.6039 15.5023 21.5373 15.6133 21.4773 15.7278C21.2489 16.1403 21.2659 16.3705 21.5966 16.7114C22.125 17.2551 22.6892 17.7631 23.1989 18.3222C23.5727 18.7289 23.9103 19.1675 24.208 19.633C24.571 20.2193 24.3409 20.7716 23.6455 20.8705Z" fill="currentColor"></path>
  </symbol>
  <symbol xmlns="http://www.w3.org/2000/svg" viewBox="0 0 29 30" id="ic_youtube">
    <path d="M12.6953 17.8099L17.412 14.9997L12.6953 12.1895V17.8099Z" fill="currentColor"></path>
    <path d="M14.5 0C6.4931 0 0 6.717 0 15C0 23.283 6.4931 30 14.5 30C22.5069 30 29 23.283 29 15C29 6.717 22.5069 0 14.5 0ZM23.5603 15.0153C23.5603 15.0153 23.5603 18.0574 23.1873 19.5243C22.9782 20.3272 22.3662 20.9603 21.59 21.1764C20.172 21.5625 14.5 21.5625 14.5 21.5625C14.5 21.5625 8.8428 21.5625 7.40997 21.161C6.63381 20.945 6.02183 20.3117 5.81274 19.5087C5.43949 18.0574 5.43949 15 5.43949 15C5.43949 15 5.43949 11.9582 5.81274 10.4913C6.02161 9.68834 6.64864 9.03969 7.40997 8.82362C8.82797 8.4375 14.5 8.4375 14.5 8.4375C14.5 8.4375 20.172 8.4375 21.59 8.83896C22.3662 9.05502 22.9782 9.68834 23.1873 10.4913C23.5753 11.9582 23.5603 15.0153 23.5603 15.0153Z" fill="currentColor"></path>
  </symbol>
</svg>